<!-- Generated by readme-aura https://github.com/collectioneur/readme-aura -->
<svg width="860" height="135" viewBox="0 0 860 135" xmlns="http://www.w3.org/2000/svg"><defs><clipPath id="satori_bc-id"><path x="0" y="0" width="860" height="135" d="M18,0 h824 a18,18 0 0 1 18,18 v99 a18,18 0 0 1 -18,18 h-824 a18,18 0 0 1 -18,-18 v-99 a18,18 0 0 1 18,-18"/></clipPath></defs><clipPath id="satori_cp-id"><path x="0" y="0" width="860" height="135" d="M18,0 h824 a18,18 0 0 1 18,18 v99 a18,18 0 0 1 -18,18 h-824 a18,18 0 0 1 -18,-18 v-99 a18,18 0 0 1 18,-18"/></clipPath><mask id="satori_om-id"><rect x="1" y="1" width="858" height="133" fill="#fff"/><path width="860" height="135" fill="none" stroke="#000" stroke-width="2" d="M5.272,5.272 A18,18 0 0 1 18,0 h824 a18,18 0 0 1 18,18 v99 a18,18 0 0 1 -18,18 h-824 a18,18 0 0 1 -18,-18 v-99 A18,18 0 0 1 5.272,5.272"/></mask><path x="0" y="0" width="860" height="135" fill="#050505" d="M18,0 h824 a18,18 0 0 1 18,18 v99 a18,18 0 0 1 -18,18 h-824 a18,18 0 0 1 -18,-18 v-99 a18,18 0 0 1 18,-18"/><path width="860" height="135" clip-path="url(#satori_bc-id)" fill="none" stroke="rgba(249,115,22,0.16)" stroke-width="2" d="M5.272,5.272 A18,18 0 0 1 18,0 h824 a18,18 0 0 1 18,18 v99 a18,18 0 0 1 -18,18 h-824 a18,18 0 0 1 -18,-18 v-99 A18,18 0 0 1 5.272,5.272"/><clipPath id="satori_cp-id-0" clip-path="url(#satori_cp-id)"><rect x="1" y="1" width="860" height="135"/></clipPath><mask id="satori_om-id-0"><rect x="1" y="1" width="860" height="135" fill="#fff" mask="url(#satori_om-id)"/></mask><svg x="1" y="1" width="860" height="135" preserveAspectRatio="none" clip-path="url(#satori_cp-id-0)" mask="url(#satori_om-id-0)"><defs><radialGradient id="ctaGlow"><stop offset="0%" stop-color="rgba(255,122,0,0.24)"></stop><stop offset="75%" stop-color="rgba(255,122,0,0)"></stop></radialGradient></defs><ellipse cx="650" cy="90" rx="170" ry="75" fill="url(#ctaGlow)" opacity="0.6"><animate attributeName="opacity" values="0.25;0.75;0.25" dur="6s" repeatCount="indefinite"></animate><animate attributeName="rx" values="130;190;130" dur="8s" repeatCount="indefinite"></animate></ellipse><circle cx="760" cy="42" r="4" fill="#F97316" opacity="0.22"><animate attributeName="r" values="2;5;2" dur="5s" repeatCount="indefinite"></animate><animate attributeName="opacity" values="0.08;0.42;0.08" dur="5s" repeatCount="indefinite"></animate></circle><path d="M420 115 C 530 80, 680 135, 910 85" stroke="rgba(251,146,60,0.15)" stroke-width="1.6" fill="none"><animateTransform attributeName="transform" type="translate" values="-60 0;60 0;-60 0" dur="9s" repeatCount="indefinite"></animateTransform><animate attributeName="opacity" values="0.04;0.3;0.04" dur="9s" repeatCount="indefinite"></animate></path></svg><mask id="satori_om-id-0-0"><rect x="1" y="1" width="0" height="135" fill="#fff" mask="url(#satori_om-id)"/></mask><mask id="satori_om-id-0-0-0"><rect x="1" y="1" width="0" height="135" fill="#fff" mask="url(#satori_om-id)"/></mask><mask id="satori_om-id-0-0-0-0"><rect x="1" y="1" width="0" height="135" fill="#fff" mask="url(#satori_om-id)"/></mask><mask id="satori_om-id-0-0-0-1"><rect x="1" y="1" width="0" height="135" fill="#fff" mask="url(#satori_om-id)"/></mask><mask id="satori_om-id-0-1"><rect x="1" y="1" width="0" height="135" fill="#fff" mask="url(#satori_om-id)"/></mask><mask id="satori_om-id-0-1-0"><rect x="1" y="1" width="0" height="135" fill="#fff" mask="url(#satori_om-id)"/></mask><mask id="satori_om-id-0-1-1"><rect x="1" y="1" width="0" height="135" fill="#fff" mask="url(#satori_om-id)"/></mask><mask id="satori_om-id-0-2"><rect x="1" y="1" width="0" height="135" fill="#fff" mask="url(#satori_om-id)"/></mask><mask id="satori_om-id-0-2-0"><rect x="1" y="1" width="0" height="135" fill="#fff" mask="url(#satori_om-id)"/></mask><mask id="satori_om-id-0-2-1"><rect x="1" y="1" width="0" height="135" fill="#fff" mask="url(#satori_om-id)"/></mask><mask id="satori_om-id-0-3"><rect x="1" y="1" width="0" height="135" fill="#fff" mask="url(#satori_om-id)"/></mask><mask id="satori_om-id-0-3-0"><rect x="1" y="1" width="0" height="135" fill="#fff" mask="url(#satori_om-id)"/></mask><mask id="satori_om-id-0-3-1"><rect x="1" y="1" width="0" height="135" fill="#fff" mask="url(#satori_om-id)"/></mask><mask id="satori_om-id-1"><rect x="35" y="20" width="390" height="96" fill="#fff" mask="url(#satori_om-id)"/></mask><mask id="satori_om-id-1-0"><rect x="35" y="20" width="390" height="52" fill="#fff" mask="url(#satori_om-id)"/></mask><g mask="url(#satori_om-id)" clip-path="url(#satori_cp-id)"><path fill="#FFFFFF" d="M47.7 42L36.6 42L36.6 24.5L40.2 24.5L40.2 39.0L47.7 39.0L47.7 42ZM55.5 42.3L55.5 42.3Q53.5 42.3 52.1 41.4Q50.6 40.6 49.8 39.1Q49.1 37.6 49.1 35.5L49.1 35.5Q49.1 33.5 49.8 32.0Q50.6 30.4 52.0 29.6Q53.5 28.7 55.4 28.7L55.4 28.7Q56.7 28.7 57.8 29.1Q58.9 29.6 59.7 30.4Q60.6 31.2 61.0 32.4Q61.5 33.7 61.5 35.4L61.5 35.4L61.5 36.4L52.5 36.4Q52.6 37.4 52.9 38.1L52.9 38.1Q53.3 38.8 54.0 39.2Q54.7 39.6 55.6 39.6L55.6 39.6Q56.2 39.6 56.7 39.4Q57.2 39.3 57.6 38.9Q57.9 38.6 58.1 38.1L58.1 38.1L61.3 38.7Q61.0 39.7 60.2 40.6Q59.4 41.4 58.3 41.8Q57.1 42.3 55.5 42.3ZM52.6 34.2L52.6 34.2L58.1 34.2Q58.1 33.5 57.8 33.0L57.8 33.0Q57.5 32.2 56.9 31.8Q56.3 31.4 55.4 31.4L55.4 31.4Q54.5 31.4 53.8 31.8Q53.2 32.2 52.9 32.9L52.9 32.9Q52.6 33.5 52.6 34.2ZM67.5 28.9L70.0 28.9L70.0 31.6L67.5 31.6L67.5 38.2Q67.5 38.8 67.8 39.1Q68.1 39.4 68.7 39.4L68.7 39.4Q68.9 39.4 69.3 39.3Q69.6 39.3 69.8 39.2L69.8 39.2L70.3 41.9Q69.7 42.0 69.2 42.1Q68.6 42.2 68.1 42.2L68.1 42.2Q66.1 42.2 65.0 41.2Q64.0 40.3 64.0 38.5L64.0 38.5L64.0 31.6L62.2 31.6L62.2 28.9L64.0 28.9L64.0 25.8L67.5 25.8L67.5 28.9ZM74.6 31.8L72.2 31.8L73.3 24.5L76.8 24.5L74.6 31.8ZM84.0 42.3L84.0 42.3Q82.4 42.3 81.2 41.8Q80.0 41.4 79.2 40.5Q78.4 39.6 78.2 38.4L78.2 38.4L81.5 37.9Q81.8 38.8 82.4 39.2Q83.0 39.7 84.1 39.7L84.1 39.7Q85.1 39.7 85.7 39.3Q86.3 38.9 86.3 38.3L86.3 38.3Q86.3 37.8 85.9 37.5Q85.5 37.2 84.6 37.0L84.6 37.0L82.3 36.5Q80.4 36.1 79.5 35.2Q78.6 34.3 78.6 32.8L78.6 32.8Q78.6 31.5 79.3 30.6Q79.9 29.7 81.2 29.2Q82.4 28.7 84.1 28.7L84.1 28.7Q85.6 28.7 86.8 29.2Q87.9 29.6 88.6 30.4Q89.3 31.2 89.5 32.2L89.5 32.2L86.4 32.8Q86.2 32.1 85.6 31.7Q85.1 31.3 84.1 31.3L84.1 31.3Q83.3 31.3 82.7 31.6Q82.1 32.0 82.1 32.6L82.1 32.6Q82.1 33.1 82.5 33.4Q82.8 33.8 83.8 33.9L83.8 33.9L86.1 34.4Q88.0 34.8 88.9 35.7Q89.9 36.6 89.9 38.0L89.9 38.0Q89.9 39.2 89.1 40.2Q88.4 41.2 87.1 41.7Q85.7 42.3 84.0 42.3Z M105.2 42.2L105.2 42.2Q102.9 42.2 101.1 41.2Q99.2 40.1 98.2 38.1Q97.1 36.1 97.1 33.3L97.1 33.3Q97.1 30.4 98.2 28.4Q99.2 26.4 101.1 25.4Q102.9 24.3 105.2 24.3L105.2 24.3Q106.7 24.3 108.0 24.7Q109.3 25.1 110.3 25.9Q111.3 26.7 111.9 27.9Q112.5 29.0 112.7 30.5L112.7 30.5L109.1 30.5Q109.0 29.8 108.7 29.2Q108.3 28.7 107.8 28.3Q107.3 27.9 106.7 27.7Q106.0 27.5 105.3 27.5L105.3 27.5Q103.9 27.5 102.9 28.2Q101.9 28.8 101.3 30.1Q100.7 31.4 100.7 33.3L100.7 33.3Q100.7 35.2 101.3 36.5Q101.9 37.7 102.9 38.4Q103.9 39.1 105.3 39.1L105.3 39.1Q106.0 39.1 106.7 38.9Q107.3 38.6 107.8 38.3Q108.3 37.9 108.7 37.3Q109.0 36.7 109.1 36.0L109.1 36.0L112.7 36.0Q112.6 37.2 112.0 38.4Q111.4 39.5 110.5 40.3Q109.5 41.2 108.2 41.7Q106.9 42.2 105.2 42.2ZM118.3 42L114.8 42L114.8 28.9L118.2 28.9L118.2 31.2L118.3 31.2Q118.7 30.0 119.6 29.3Q120.4 28.7 121.5 28.7L121.5 28.7Q121.8 28.7 122.1 28.8Q122.4 28.8 122.6 28.8L122.6 28.8L122.6 32.0Q122.4 31.9 122.0 31.9Q121.5 31.8 121.1 31.8L121.1 31.8Q120.3 31.8 119.7 32.2Q119.0 32.5 118.7 33.1Q118.3 33.7 118.3 34.5L118.3 34.5L118.3 42ZM130.0 42.3L130.0 42.3Q128.0 42.3 126.6 41.4Q125.1 40.6 124.4 39.1Q123.6 37.6 123.6 35.5L123.6 35.5Q123.6 33.5 124.3 32.0Q125.1 30.4 126.5 29.6Q128.0 28.7 129.9 28.7L129.9 28.7Q131.2 28.7 132.3 29.1Q133.4 29.6 134.2 30.4Q135.1 31.2 135.5 32.4Q136.0 33.7 136.0 35.4L136.0 35.4L136.0 36.4L127.1 36.4Q127.1 37.4 127.4 38.1L127.4 38.1Q127.8 38.8 128.5 39.2Q129.2 39.6 130.1 39.6L130.1 39.6Q130.7 39.6 131.2 39.4Q131.7 39.3 132.1 38.9Q132.4 38.6 132.6 38.1L132.6 38.1L135.8 38.7Q135.5 39.7 134.7 40.6Q133.9 41.4 132.8 41.8Q131.6 42.3 130.0 42.3ZM127.1 34.2L127.1 34.2L132.6 34.2Q132.6 33.5 132.4 33.0L132.4 33.0Q132.0 32.2 131.4 31.8Q130.8 31.4 129.9 31.4L129.9 31.4Q129.0 31.4 128.4 31.8Q127.7 32.2 127.4 32.9L127.4 32.9Q127.1 33.5 127.1 34.2ZM141.6 42.3L141.6 42.3Q140.4 42.3 139.4 41.8Q138.4 41.4 137.8 40.5Q137.3 39.6 137.3 38.3L137.3 38.3Q137.3 37.2 137.7 36.5Q138.1 35.8 138.8 35.3Q139.5 34.9 140.4 34.6Q141.2 34.4 142.2 34.3L142.2 34.3Q143.4 34.2 144.1 34.1Q144.7 34.0 145.1 33.8Q145.4 33.6 145.4 33.1L145.4 33.1L145.4 33.1Q145.4 32.5 145.2 32.1Q144.9 31.7 144.5 31.5Q144.0 31.3 143.3 31.3L143.3 31.3Q142.7 31.3 142.2 31.5Q141.7 31.7 141.3 32.1Q141.0 32.4 140.9 32.8L140.9 32.8L137.6 32.3Q138.0 31.2 138.8 30.4Q139.6 29.6 140.7 29.2Q141.9 28.7 143.4 28.7L143.4 28.7Q144.4 28.7 145.4 29.0Q146.4 29.2 147.2 29.8Q148.0 30.3 148.4 31.1Q148.9 32.0 148.9 33.2L148.9 33.2L148.9 42L145.6 42L145.6 40.2L145.5 40.2Q145.1 40.8 144.6 41.3Q144.1 41.7 143.3 42.0Q142.6 42.3 141.6 42.3ZM142.6 39.8L142.6 39.8Q143.5 39.8 144.1 39.5Q144.7 39.1 145.1 38.6Q145.4 38.0 145.4 37.3L145.4 37.3L145.4 35.9Q145.3 36.0 144.9 36.1Q144.6 36.2 144.2 36.3Q143.9 36.3 143.5 36.4Q143.1 36.5 142.8 36.5L142.8 36.5Q142.2 36.6 141.7 36.8Q141.2 37.0 140.9 37.4Q140.6 37.7 140.6 38.2L140.6 38.2Q140.6 38.7 140.9 39.1Q141.2 39.4 141.6 39.6Q142.1 39.8 142.6 39.8ZM155.5 28.9L158.0 28.9L158.0 31.6L155.5 31.6L155.5 38.2Q155.5 38.8 155.8 39.1Q156.1 39.4 156.7 39.4L156.7 39.4Q156.9 39.4 157.3 39.3Q157.6 39.3 157.8 39.2L157.8 39.2L158.3 41.9Q157.7 42.0 157.2 42.1Q156.6 42.2 156.1 42.2L156.1 42.2Q154.1 42.2 153.0 41.2Q152.0 40.3 152.0 38.5L152.0 38.5L152.0 31.6L150.2 31.6L150.2 28.9L152.0 28.9L152.0 25.8L155.5 25.8L155.5 28.9ZM165.7 42.3L165.7 42.3Q163.7 42.3 162.3 41.4Q160.8 40.6 160.0 39.1Q159.2 37.6 159.2 35.5L159.2 35.5Q159.2 33.5 160.0 32.0Q160.8 30.4 162.2 29.6Q163.6 28.7 165.5 28.7L165.5 28.7Q166.8 28.7 167.9 29.1Q169.1 29.6 169.9 30.4Q170.7 31.2 171.2 32.4Q171.7 33.7 171.7 35.4L171.7 35.4L171.7 36.4L162.7 36.4Q162.8 37.4 163.1 38.1L163.1 38.1Q163.5 38.8 164.2 39.2Q164.9 39.6 165.8 39.6L165.8 39.6Q166.4 39.6 166.9 39.4Q167.4 39.3 167.8 38.9Q168.1 38.6 168.3 38.1L168.3 38.1L171.5 38.7Q171.2 39.7 170.4 40.6Q169.6 41.4 168.4 41.8Q167.3 42.3 165.7 42.3ZM162.8 34.2L162.8 34.2L168.3 34.2Q168.2 33.5 168.0 33.0L168.0 33.0Q167.7 32.2 167.1 31.8Q166.5 31.4 165.6 31.4L165.6 31.4Q164.7 31.4 164.0 31.8Q163.4 32.2 163.1 32.9L163.1 32.9Q162.8 33.5 162.8 34.2Z M178.6 24.5L182.2 24.5L182.2 42L178.6 42L178.6 24.5ZM188.3 42L184.8 42L184.8 28.9L188.0 28.9L188.2 31.4Q188.5 30.7 188.9 30.2L188.9 30.2Q189.5 29.4 190.2 29.1Q191.0 28.7 191.9 28.7L191.9 28.7Q193.3 28.7 194.2 29.6L194.2 29.6Q194.9 30.3 195.3 31.6L195.3 31.6Q195.6 30.9 196.0 30.3L196.0 30.3Q196.7 29.5 197.6 29.1Q198.5 28.7 199.5 28.7L199.5 28.7Q200.7 28.7 201.7 29.2Q202.6 29.8 203.1 30.7Q203.7 31.7 203.7 33.2L203.7 33.2L203.7 42L200.2 42L200.2 33.8Q200.2 32.7 199.6 32.2Q199.0 31.6 198.1 31.6L198.1 31.6Q197.4 31.6 196.9 31.9Q196.5 32.2 196.2 32.7Q195.9 33.2 195.9 33.9L195.9 33.9L195.9 42L192.5 42L192.5 33.7Q192.5 32.8 192.0 32.2Q191.4 31.6 190.5 31.6L190.5 31.6Q189.9 31.6 189.4 31.9Q188.9 32.2 188.6 32.7Q188.3 33.3 188.3 34.1L188.3 34.1L188.3 42ZM209.8 46.9L206.2 46.9L206.2 28.9L209.7 28.9L209.7 31.1L209.9 31.1Q210.1 30.6 210.6 30.0Q211.0 29.5 211.7 29.1Q212.5 28.7 213.6 28.7L213.6 28.7Q215.1 28.7 216.3 29.5Q217.5 30.2 218.2 31.7Q218.9 33.2 218.9 35.5L218.9 35.5Q218.9 37.7 218.2 39.2Q217.5 40.7 216.3 41.4Q215.1 42.2 213.6 42.2L213.6 42.2Q212.5 42.2 211.8 41.9Q211.0 41.5 210.6 41.0Q210.1 40.4 209.9 39.9L209.9 39.9L209.8 39.9L209.8 46.9ZM212.5 39.4L212.5 39.4Q213.4 39.4 214.0 38.9Q214.7 38.4 215.0 37.5Q215.3 36.6 215.3 35.5L215.3 35.5Q215.3 34.3 215.0 33.4Q214.7 32.6 214.0 32.1Q213.4 31.5 212.5 31.5L212.5 31.5Q211.6 31.5 211.0 32.0Q210.3 32.5 210.0 33.4Q209.7 34.3 209.7 35.5L209.7 35.5Q209.7 36.6 210.0 37.5Q210.3 38.4 211.0 38.9Q211.6 39.4 212.5 39.4ZM224.6 42.3L224.6 42.3Q223.3 42.3 222.3 41.8Q221.4 41.4 220.8 40.5Q220.2 39.6 220.2 38.3L220.2 38.3Q220.2 37.2 220.6 36.5Q221.0 35.8 221.7 35.3Q222.4 34.9 223.3 34.6Q224.2 34.4 225.2 34.3L225.2 34.3Q226.3 34.2 227.0 34.1Q227.7 34.0 228.0 33.8Q228.3 33.6 228.3 33.1L228.3 33.1L228.3 33.1Q228.3 32.5 228.1 32.1Q227.9 31.7 227.4 31.5Q226.9 31.3 226.3 31.3L226.3 31.3Q225.6 31.3 225.1 31.5Q224.6 31.7 224.3 32.1Q224.0 32.4 223.8 32.8L223.8 32.8L220.6 32.3Q220.9 31.2 221.7 30.4Q222.5 29.6 223.7 29.2Q224.8 28.7 226.3 28.7L226.3 28.7Q227.4 28.7 228.3 29.0Q229.3 29.2 230.1 29.8Q230.9 30.3 231.4 31.1Q231.9 32.0 231.9 33.2L231.9 33.2L231.9 42L228.5 42L228.5 40.2L228.4 40.2Q228.1 40.8 227.6 41.3Q227.0 41.7 226.3 42.0Q225.5 42.3 224.6 42.3ZM225.6 39.8L225.6 39.8Q226.4 39.8 227.0 39.5Q227.7 39.1 228.0 38.6Q228.4 38.0 228.4 37.3L228.4 37.3L228.4 35.9Q228.2 36.0 227.9 36.1Q227.6 36.2 227.2 36.3Q226.8 36.3 226.4 36.4Q226.1 36.5 225.8 36.5L225.8 36.5Q225.1 36.6 224.6 36.8Q224.1 37.0 223.9 37.4Q223.6 37.7 223.6 38.2L223.6 38.2Q223.6 38.7 223.8 39.1Q224.1 39.4 224.6 39.6Q225.0 39.8 225.6 39.8ZM240.3 42.3L240.3 42.3Q238.3 42.3 236.8 41.4Q235.4 40.6 234.6 39.0Q233.9 37.5 233.9 35.5L233.9 35.5Q233.9 33.5 234.6 32.0Q235.4 30.4 236.8 29.6Q238.3 28.7 240.3 28.7L240.3 28.7Q241.4 28.7 242.4 29.0Q243.4 29.3 244.2 29.9Q244.9 30.5 245.4 31.3Q245.9 32.1 246.1 33.1L246.1 33.1L242.8 33.7Q242.7 33.2 242.5 32.8Q242.3 32.4 242.0 32.1Q241.6 31.8 241.2 31.7Q240.8 31.5 240.3 31.5L240.3 31.5Q239.4 31.5 238.7 32.0Q238.1 32.5 237.8 33.4Q237.4 34.3 237.4 35.5L237.4 35.5Q237.4 36.7 237.8 37.6Q238.1 38.5 238.7 39.0Q239.4 39.5 240.3 39.5L240.3 39.5Q240.8 39.5 241.2 39.3Q241.6 39.2 242.0 38.9Q242.3 38.6 242.5 38.2Q242.7 37.7 242.8 37.2L242.8 37.2L246.1 37.8Q245.9 38.8 245.4 39.7Q244.9 40.5 244.2 41.1Q243.4 41.6 242.4 42.0Q241.4 42.3 240.3 42.3ZM252.1 28.9L254.6 28.9L254.6 31.6L252.1 31.6L252.1 38.2Q252.1 38.8 252.4 39.1Q252.7 39.4 253.3 39.4L253.3 39.4Q253.5 39.4 253.9 39.3Q254.3 39.3 254.4 39.2L254.4 39.2L254.9 41.9Q254.4 42.0 253.8 42.1Q253.2 42.2 252.7 42.2L252.7 42.2Q250.7 42.2 249.7 41.2Q248.6 40.3 248.6 38.5L248.6 38.5L248.6 31.6L246.8 31.6L246.8 28.9L248.6 28.9L248.6 25.8L252.1 25.8L252.1 28.9ZM261.0 28.9L263.7 28.9L263.7 31.6L261.0 31.6L261.0 42L257.5 42L257.5 31.6L255.1 31.6L255.1 28.9L257.5 28.9L257.5 27.9Q257.5 26.5 258.0 25.6Q258.6 24.6 259.5 24.2Q260.5 23.7 261.7 23.7L261.7 23.7Q262.5 23.7 263.2 23.9Q263.9 24.0 264.2 24.1L264.2 24.1L263.6 26.7Q263.4 26.7 263.1 26.6Q262.8 26.6 262.4 26.6L262.4 26.6Q261.6 26.6 261.3 26.9Q261.0 27.3 261.0 28.0L261.0 28.0L261.0 28.9ZM270.0 42.2L270.0 42.2Q268.7 42.2 267.6 41.6Q266.6 41.0 266.1 39.9Q265.5 38.8 265.5 37.2L265.5 37.2L265.5 28.9L269.0 28.9L269.0 36.6Q269.0 37.8 269.7 38.5Q270.3 39.2 271.4 39.2L271.4 39.2Q272.1 39.2 272.7 38.9Q273.3 38.6 273.6 38.0Q273.9 37.3 273.9 36.5L273.9 36.5L273.9 28.9L277.5 28.9L277.5 42L274.1 42L274.1 39.3Q273.6 40.5 272.7 41.3L272.7 41.3Q271.7 42.2 270.0 42.2ZM280.0 24.5L283.5 24.5L283.5 42L280.0 42L280.0 24.5Z M297.7 42L297.7 42L291.6 42L291.6 24.5L297.8 24.5Q300.4 24.5 302.3 25.6Q304.2 26.6 305.2 28.6Q306.2 30.5 306.2 33.3L306.2 33.3Q306.2 36.0 305.2 37.9Q304.2 39.9 302.3 41.0Q300.4 42 297.7 42ZM295.2 27.6L295.2 38.9L297.5 38.9Q299.2 38.9 300.4 38.3Q301.5 37.7 302.1 36.5Q302.7 35.2 302.7 33.3L302.7 33.3Q302.7 31.3 302.1 30.1Q301.5 28.8 300.4 28.2Q299.2 27.6 297.6 27.6L297.6 27.6L295.2 27.6ZM311.9 42L308.4 42L308.4 28.9L311.9 28.9L311.9 42ZM310.1 27.2L310.1 27.2Q309.3 27.2 308.8 26.7Q308.2 26.1 308.2 25.4L308.2 25.4Q308.2 24.6 308.8 24.1Q309.3 23.6 310.1 23.6L310.1 23.6Q310.9 23.6 311.5 24.1Q312.1 24.6 312.1 25.4L312.1 25.4Q312.1 26.1 311.5 26.7Q310.9 27.2 310.1 27.2ZM320.3 47.2L320.3 47.2Q318.6 47.2 317.4 46.8Q316.2 46.3 315.4 45.6Q314.7 44.9 314.4 44.0L314.4 44.0L317.4 43.1Q317.6 43.5 317.9 43.8Q318.2 44.2 318.8 44.4Q319.4 44.6 320.2 44.6L320.2 44.6Q321.6 44.6 322.4 44.0Q323.1 43.4 323.1 42.1L323.1 42.1L323.1 39.7L322.9 39.7Q322.6 40.2 322.2 40.7Q321.7 41.2 321.0 41.5Q320.3 41.8 319.2 41.8L319.2 41.8Q317.7 41.8 316.5 41.1Q315.3 40.4 314.6 39.0Q313.9 37.6 313.9 35.4L313.9 35.4Q313.9 33.2 314.6 31.7Q315.4 30.2 316.6 29.5Q317.8 28.7 319.2 28.7L319.2 28.7Q320.3 28.7 321.1 29.1Q321.8 29.5 322.3 30.0Q322.8 30.6 323.0 31.1L323.0 31.1L323.1 31.1L323.1 28.9L326.6 28.9L326.6 41.9Q326.6 43.7 325.8 44.8Q325.0 46.0 323.5 46.6Q322.1 47.2 320.3 47.2ZM320.3 39.1L320.3 39.1Q321.2 39.1 321.8 38.7Q322.5 38.3 322.8 37.4Q323.1 36.6 323.1 35.4L323.1 35.4Q323.1 34.2 322.8 33.4Q322.5 32.5 321.8 32.0Q321.2 31.5 320.3 31.5L320.3 31.5Q319.4 31.5 318.8 32.0Q318.1 32.5 317.8 33.4Q317.5 34.3 317.5 35.4L317.5 35.4Q317.5 36.6 317.8 37.4Q318.1 38.2 318.8 38.7Q319.4 39.1 320.3 39.1ZM332.7 42L329.2 42L329.2 28.9L332.7 28.9L332.7 42ZM330.9 27.2L330.9 27.2Q330.1 27.2 329.5 26.7Q329.0 26.1 329.0 25.4L329.0 25.4Q329.0 24.6 329.5 24.1Q330.1 23.6 330.9 23.6L330.9 23.6Q331.7 23.6 332.3 24.1Q332.8 24.6 332.8 25.4L332.8 25.4Q332.8 26.1 332.3 26.7Q331.7 27.2 330.9 27.2ZM339.3 28.9L341.7 28.9L341.7 31.6L339.3 31.6L339.3 38.2Q339.3 38.8 339.5 39.1Q339.8 39.4 340.5 39.4L340.5 39.4Q340.7 39.4 341.0 39.3Q341.4 39.3 341.6 39.2L341.6 39.2L342.1 41.9Q341.5 42.0 340.9 42.1Q340.3 42.2 339.8 42.2L339.8 42.2Q337.8 42.2 336.8 41.2Q335.7 40.3 335.7 38.5L335.7 38.5L335.7 31.6L333.9 31.6L333.9 28.9L335.7 28.9L335.7 25.8L339.3 25.8L339.3 28.9ZM347.2 42.3L347.2 42.3Q346.0 42.3 345.0 41.8Q344.0 41.4 343.4 40.5Q342.8 39.6 342.8 38.3L342.8 38.3Q342.8 37.2 343.2 36.5Q343.6 35.8 344.3 35.3Q345.0 34.9 345.9 34.6Q346.8 34.4 347.8 34.3L347.8 34.3Q348.9 34.2 349.6 34.1Q350.3 34.0 350.6 33.8Q351.0 33.6 351.0 33.1L351.0 33.1L351.0 33.1Q351.0 32.5 350.7 32.1Q350.5 31.7 350.0 31.5Q349.6 31.3 348.9 31.3L348.9 31.3Q348.2 31.3 347.7 31.5Q347.2 31.7 346.9 32.1Q346.6 32.4 346.4 32.8L346.4 32.8L343.2 32.3Q343.6 31.2 344.3 30.4Q345.1 29.6 346.3 29.2Q347.5 28.7 348.9 28.7L348.9 28.7Q350.0 28.7 351.0 29.0Q352.0 29.2 352.8 29.8Q353.6 30.3 354.0 31.1Q354.5 32.0 354.5 33.2L354.5 33.2L354.5 42L351.1 42L351.1 40.2L351.0 40.2Q350.7 40.8 350.2 41.3Q349.7 41.7 348.9 42.0Q348.2 42.3 347.2 42.3ZM348.2 39.8L348.2 39.8Q349.0 39.8 349.7 39.5Q350.3 39.1 350.6 38.6Q351.0 38.0 351.0 37.3L351.0 37.3L351.0 35.9Q350.8 36.0 350.5 36.1Q350.2 36.2 349.8 36.3Q349.4 36.3 349.1 36.4Q348.7 36.5 348.4 36.5L348.4 36.5Q347.7 36.6 347.2 36.8Q346.8 37.0 346.5 37.4Q346.2 37.7 346.2 38.2L346.2 38.2Q346.2 38.7 346.5 39.1Q346.7 39.4 347.2 39.6Q347.6 39.8 348.2 39.8ZM357.0 24.5L360.5 24.5L360.5 42L357.0 42L357.0 24.5Z M48.3 68L36.6 68L36.6 50.5L48.3 50.5L48.3 53.5L40.2 53.5L40.2 57.7L47.7 57.7L47.7 60.6L40.2 60.6L40.2 65.0L48.3 65.0L48.3 68ZM53.3 68L49.6 68L53.8 61.3L49.9 54.9L53.7 54.9L54.9 57.0Q55.4 58.0 55.9 59.0L55.9 59.0Q56.0 59.2 56.1 59.5L56.1 59.5Q56.3 59.3 56.4 59.0L56.4 59.0Q56.8 58.0 57.4 57.0L57.4 57.0L58.6 54.9L62.4 54.9L58.3 61.3L62.6 68L58.8 68L57.3 65.5Q56.8 64.5 56.3 63.5L56.3 63.5Q56.2 63.3 56.0 63.0L56.0 63.0Q55.9 63.3 55.8 63.5L55.8 63.5Q55.4 64.5 54.8 65.5L54.8 65.5L53.3 68ZM67.6 72.9L64.1 72.9L64.1 54.9L67.6 54.9L67.6 57.1L67.7 57.1Q68.0 56.6 68.4 56.0Q68.9 55.5 69.6 55.1Q70.3 54.7 71.5 54.7L71.5 54.7Q72.9 54.7 74.1 55.5Q75.3 56.2 76.0 57.7Q76.8 59.2 76.8 61.5L76.8 61.5Q76.8 63.7 76.1 65.2Q75.4 66.7 74.2 67.4Q72.9 68.2 71.4 68.2L71.4 68.2Q70.4 68.2 69.6 67.9Q68.9 67.5 68.4 67.0Q68.0 66.4 67.7 65.9L67.7 65.9L67.6 65.9L67.6 72.9ZM70.4 65.4L70.4 65.4Q71.3 65.4 71.9 64.9Q72.5 64.4 72.8 63.5Q73.2 62.6 73.2 61.5L73.2 61.5Q73.2 60.3 72.8 59.4Q72.5 58.6 71.9 58.1Q71.3 57.5 70.4 57.5L70.4 57.5Q69.5 57.5 68.8 58.0Q68.2 58.5 67.9 59.4Q67.5 60.3 67.5 61.5L67.5 61.5Q67.5 62.6 67.9 63.5Q68.2 64.4 68.8 64.9Q69.5 65.4 70.4 65.4ZM84.7 68.3L84.7 68.3Q82.7 68.3 81.2 67.4Q79.8 66.6 79.0 65.1Q78.2 63.6 78.2 61.5L78.2 61.5Q78.2 59.5 79.0 58.0Q79.8 56.4 81.2 55.6Q82.6 54.7 84.5 54.7L84.5 54.7Q85.8 54.7 86.9 55.1Q88.0 55.6 88.9 56.4Q89.7 57.2 90.2 58.4Q90.7 59.7 90.7 61.4L90.7 61.4L90.7 62.4L81.7 62.4Q81.7 63.4 82.1 64.1L82.1 64.1Q82.5 64.8 83.2 65.2Q83.8 65.6 84.8 65.6L84.8 65.6Q85.4 65.6 85.9 65.4Q86.4 65.3 86.7 64.9Q87.1 64.6 87.3 64.1L87.3 64.1L90.5 64.7Q90.2 65.7 89.4 66.6Q88.6 67.4 87.4 67.8Q86.2 68.3 84.7 68.3ZM81.7 60.2L81.7 60.2L87.3 60.2Q87.2 59.5 87.0 59.0L87.0 59.0Q86.7 58.2 86.1 57.8Q85.5 57.4 84.6 57.4L84.6 57.4Q83.6 57.4 83.0 57.8Q82.4 58.2 82.0 58.9L82.0 58.9Q81.8 59.5 81.7 60.2ZM96.1 68L92.6 68L92.6 54.9L96.0 54.9L96.0 57.2L96.2 57.2Q96.5 56.0 97.4 55.3Q98.2 54.7 99.3 54.7L99.3 54.7Q99.6 54.7 99.9 54.8Q100.2 54.8 100.5 54.8L100.5 54.8L100.5 58.0Q100.2 57.9 99.8 57.9Q99.3 57.8 98.9 57.8L98.9 57.8Q98.1 57.8 97.5 58.2Q96.9 58.5 96.5 59.1Q96.1 59.7 96.1 60.5L96.1 60.5L96.1 68ZM105.5 68L101.9 68L101.9 54.9L105.5 54.9L105.5 68ZM103.7 53.2L103.7 53.2Q102.9 53.2 102.3 52.7Q101.8 52.1 101.8 51.4L101.8 51.4Q101.8 50.6 102.3 50.1Q102.9 49.6 103.7 49.6L103.7 49.6Q104.5 49.6 105.1 50.1Q105.6 50.6 105.6 51.4L105.6 51.4Q105.6 52.1 105.1 52.7Q104.5 53.2 103.7 53.2ZM113.9 68.3L113.9 68.3Q111.9 68.3 110.5 67.4Q109.0 66.6 108.2 65.1Q107.5 63.6 107.5 61.5L107.5 61.5Q107.5 59.5 108.2 58.0Q109.0 56.4 110.4 55.6Q111.8 54.7 113.7 54.7L113.7 54.7Q115.0 54.7 116.1 55.1Q117.3 55.6 118.1 56.4Q118.9 57.2 119.4 58.4Q119.9 59.7 119.9 61.4L119.9 61.4L119.9 62.4L110.9 62.4Q111.0 63.4 111.3 64.1L111.3 64.1Q111.7 64.8 112.4 65.2Q113.1 65.6 114.0 65.6L114.0 65.6Q114.6 65.6 115.1 65.4Q115.6 65.3 116.0 64.9Q116.3 64.6 116.5 64.1L116.5 64.1L119.7 64.7Q119.4 65.7 118.6 66.6Q117.8 67.4 116.6 67.8Q115.5 68.3 113.9 68.3ZM111.0 60.2L111.0 60.2L116.5 60.2Q116.4 59.5 116.2 59.0L116.2 59.0Q115.9 58.2 115.3 57.8Q114.7 57.4 113.8 57.4L113.8 57.4Q112.9 57.4 112.2 57.8Q111.6 58.2 111.3 58.9L111.3 58.9Q111.0 59.5 111.0 60.2ZM125.4 60.4L125.4 60.4L125.4 68L121.8 68L121.8 54.9L125.2 54.9L125.2 57.6Q125.7 56.4 126.6 55.6L126.6 55.6Q127.6 54.7 129.3 54.7L129.3 54.7Q130.7 54.7 131.7 55.3Q132.7 55.9 133.2 57.0Q133.8 58.1 133.8 59.7L133.8 59.7L133.8 68L130.3 68L130.3 60.3Q130.3 59.1 129.6 58.4Q129.0 57.7 127.9 57.7L127.9 57.7Q127.2 57.7 126.6 58.0Q126.0 58.3 125.7 58.9Q125.4 59.5 125.4 60.4ZM142.2 68.3L142.2 68.3Q140.2 68.3 138.8 67.4Q137.3 66.6 136.6 65.0Q135.8 63.5 135.8 61.5L135.8 61.5Q135.8 59.5 136.6 58.0Q137.3 56.4 138.8 55.6Q140.2 54.7 142.2 54.7L142.2 54.7Q143.4 54.7 144.3 55.0Q145.3 55.3 146.1 55.9Q146.9 56.5 147.3 57.3Q147.8 58.1 148.0 59.1L148.0 59.1L144.8 59.7Q144.6 59.2 144.4 58.8Q144.2 58.4 143.9 58.1Q143.6 57.8 143.2 57.7Q142.7 57.5 142.2 57.5L142.2 57.5Q141.3 57.5 140.7 58.0Q140.0 58.5 139.7 59.4Q139.4 60.3 139.4 61.5L139.4 61.5Q139.4 62.7 139.7 63.6Q140.0 64.5 140.7 65.0Q141.3 65.5 142.2 65.5L142.2 65.5Q142.7 65.5 143.2 65.3Q143.6 65.2 143.9 64.9Q144.2 64.6 144.5 64.2Q144.7 63.7 144.8 63.2L144.8 63.2L148.0 63.8Q147.9 64.8 147.4 65.7Q146.9 66.5 146.1 67.1Q145.4 67.6 144.4 68.0Q143.4 68.3 142.2 68.3ZM155.9 68.3L155.9 68.3Q153.9 68.3 152.5 67.4Q151.0 66.6 150.2 65.1Q149.5 63.6 149.5 61.5L149.5 61.5Q149.5 59.5 150.2 58.0Q151.0 56.4 152.4 55.6Q153.8 54.7 155.8 54.7L155.8 54.7Q157.0 54.7 158.2 55.1Q159.3 55.6 160.1 56.4Q161.0 57.2 161.4 58.4Q161.9 59.7 161.9 61.4L161.9 61.4L161.9 62.4L152.9 62.4Q153.0 63.4 153.3 64.1L153.3 64.1Q153.7 64.8 154.4 65.2Q155.1 65.6 156.0 65.6L156.0 65.6Q156.6 65.6 157.1 65.4Q157.6 65.3 158.0 64.9Q158.3 64.6 158.5 64.1L158.5 64.1L161.7 64.7Q161.4 65.7 160.6 66.6Q159.8 67.4 158.6 67.8Q157.5 68.3 155.9 68.3ZM153.0 60.2L153.0 60.2L158.5 60.2Q158.4 59.5 158.2 59.0L158.2 59.0Q157.9 58.2 157.3 57.8Q156.7 57.4 155.8 57.4L155.8 57.4Q154.9 57.4 154.2 57.8Q153.6 58.2 153.3 58.9L153.3 58.9Q153.0 59.5 153.0 60.2ZM169.1 68.3L169.1 68.3Q167.5 68.3 166.3 67.8Q165.0 67.4 164.3 66.5Q163.5 65.6 163.3 64.4L163.3 64.4L166.5 63.9Q166.8 64.8 167.4 65.2Q168.1 65.7 169.2 65.7L169.2 65.7Q170.2 65.7 170.8 65.3Q171.3 64.9 171.3 64.3L171.3 64.3Q171.3 63.8 170.9 63.5Q170.5 63.2 169.6 63.0L169.6 63.0L167.4 62.5Q165.5 62.1 164.6 61.2Q163.6 60.3 163.6 58.8L163.6 58.8Q163.6 57.5 164.3 56.6Q165.0 55.7 166.2 55.2Q167.5 54.7 169.1 54.7L169.1 54.7Q170.7 54.7 171.8 55.2Q172.9 55.6 173.6 56.4Q174.3 57.2 174.6 58.2L174.6 58.2L171.5 58.8Q171.3 58.1 170.7 57.7Q170.1 57.3 169.2 57.3L169.2 57.3Q168.3 57.3 167.7 57.6Q167.1 58.0 167.1 58.6L167.1 58.6Q167.1 59.1 167.5 59.4Q167.9 59.8 168.8 59.9L168.8 59.9L171.2 60.4Q173.1 60.8 174.0 61.7Q174.9 62.6 174.9 64.0L174.9 64.0Q174.9 65.2 174.2 66.2Q173.4 67.2 172.1 67.7Q170.8 68.3 169.1 68.3ZM179.4 68.2L179.4 68.2Q178.5 68.2 177.9 67.6Q177.3 67.1 177.3 66.2L177.3 66.2Q177.3 65.4 177.9 64.8Q178.5 64.2 179.4 64.2L179.4 64.2Q180.2 64.2 180.8 64.8Q181.4 65.4 181.4 66.2L181.4 66.2Q181.4 67.1 180.8 67.6Q180.2 68.2 179.4 68.2Z "/></g><mask id="satori_om-id-1-1"><rect x="35" y="80" width="390" height="36" fill="#fff" mask="url(#satori_om-id)"/></mask><g mask="url(#satori_om-id)" clip-path="url(#satori_cp-id)"><path fill="#A1A1AA" d="M36.6 94L35.3 94L38.8 84.5L40.2 84.5L43.6 94L42.4 94L41.4 91.4L37.5 91.4L36.6 94ZM37.9 90.3L41.0 90.3L40.4 88.4Q40.2 87.9 39.9 87.1L39.9 87.1Q39.7 86.4 39.5 85.5L39.5 85.5Q39.2 86.5 39.0 87.1L39.0 87.1Q38.7 87.9 38.6 88.4L38.6 88.4L37.9 90.3ZM48.2 94L47.0 94L44.3 86.9L45.6 86.9L47.1 91.1Q47.3 91.8 47.5 92.4L47.5 92.4Q47.6 92.7 47.6 93.0L47.6 93.0Q47.7 92.7 47.8 92.4L47.8 92.4Q47.9 91.8 48.2 91.1L48.2 91.1L49.7 86.9L50.9 86.9L48.2 94ZM54.3 94.2L54.3 94.2Q53.6 94.2 53.0 93.9Q52.5 93.7 52.2 93.2Q51.8 92.7 51.8 92.0L51.8 92.0Q51.8 91.4 52.1 91.0Q52.3 90.6 52.7 90.4Q53.1 90.2 53.6 90.1Q54.1 90.0 54.6 89.9L54.6 89.9Q55.2 89.8 55.6 89.8Q56.0 89.7 56.2 89.6Q56.4 89.5 56.4 89.2L56.4 89.2L56.4 89.2Q56.4 88.8 56.3 88.5Q56.1 88.1 55.8 88.0Q55.4 87.8 54.9 87.8L54.9 87.8Q54.4 87.8 54.1 88.0Q53.7 88.1 53.5 88.4Q53.3 88.6 53.1 88.9L53.1 88.9L52.0 88.5Q52.3 87.8 52.8 87.5Q53.2 87.1 53.8 87.0Q54.4 86.8 54.9 86.8L54.9 86.8Q55.3 86.8 55.7 86.9Q56.2 87.0 56.6 87.2Q57.0 87.5 57.3 88.0Q57.6 88.5 57.6 89.3L57.6 89.3L57.6 94L56.4 94L56.4 93.0L56.4 93.0Q56.3 93.3 56.0 93.5Q55.7 93.8 55.3 94.0Q54.9 94.2 54.3 94.2ZM54.5 93.2L54.5 93.2Q55.1 93.2 55.5 92.9Q56.0 92.7 56.2 92.3Q56.4 91.9 56.4 91.4L56.4 91.4L56.4 90.5Q56.4 90.5 56.1 90.6Q55.9 90.7 55.6 90.7Q55.3 90.8 55.0 90.8Q54.7 90.8 54.6 90.9L54.6 90.9Q54.1 90.9 53.8 91.0Q53.4 91.2 53.2 91.4Q53.0 91.6 53.0 92.0L53.0 92.0Q53.0 92.4 53.2 92.7Q53.4 92.9 53.7 93.0Q54.0 93.2 54.5 93.2ZM60.7 94L59.6 94L59.6 86.9L60.7 86.9L60.7 94ZM60.2 85.7L60.2 85.7Q59.8 85.7 59.6 85.5Q59.4 85.3 59.4 85.0L59.4 85.0Q59.4 84.7 59.6 84.4Q59.8 84.2 60.2 84.2L60.2 84.2Q60.5 84.2 60.7 84.4Q61.0 84.7 61.0 85.0L61.0 85.0Q61.0 85.3 60.7 85.5Q60.5 85.7 60.2 85.7ZM62.7 84.5L63.9 84.5L63.9 94L62.7 94L62.7 84.5ZM67.9 94.2L67.9 94.2Q67.2 94.2 66.6 93.9Q66.1 93.7 65.8 93.2Q65.4 92.7 65.4 92.0L65.4 92.0Q65.4 91.4 65.7 91.0Q65.9 90.6 66.3 90.4Q66.7 90.2 67.2 90.1Q67.7 90.0 68.2 89.9L68.2 89.9Q68.8 89.8 69.2 89.8Q69.6 89.7 69.8 89.6Q70.0 89.5 70.0 89.2L70.0 89.2L70.0 89.2Q70.0 88.8 69.9 88.5Q69.7 88.1 69.4 88.0Q69.0 87.8 68.5 87.8L68.5 87.8Q68.0 87.8 67.7 88.0Q67.3 88.1 67.1 88.4Q66.9 88.6 66.7 88.9L66.7 88.9L65.6 88.5Q65.9 87.8 66.4 87.5Q66.8 87.1 67.4 87.0Q68.0 86.8 68.5 86.8L68.5 86.8Q68.9 86.8 69.3 86.9Q69.8 87.0 70.2 87.2Q70.6 87.5 70.9 88.0Q71.2 88.5 71.2 89.3L71.2 89.3L71.2 94L70.0 94L70.0 93.0L70.0 93.0Q69.8 93.3 69.6 93.5Q69.3 93.8 68.9 94.0Q68.5 94.2 67.9 94.2ZM68.1 93.2L68.1 93.2Q68.7 93.2 69.1 92.9Q69.6 92.7 69.8 92.3Q70.0 91.9 70.0 91.4L70.0 91.4L70.0 90.5Q70.0 90.5 69.7 90.6Q69.5 90.7 69.2 90.7Q68.9 90.8 68.6 90.8Q68.3 90.8 68.2 90.9L68.2 90.9Q67.7 90.9 67.4 91.0Q67.0 91.2 66.8 91.4Q66.6 91.6 66.6 92.0L66.6 92.0Q66.6 92.4 66.8 92.7Q67.0 92.9 67.3 93.0Q67.6 93.2 68.1 93.2ZM76.5 94.2L76.5 94.2Q75.8 94.2 75.4 93.9Q75.0 93.7 74.7 93.4Q74.5 93.1 74.4 92.9L74.4 92.9L74.3 92.9L74.3 94L73.2 94L73.2 84.5L74.3 84.5L74.3 88.0L74.4 88.0Q74.5 87.8 74.7 87.6Q75.0 87.3 75.4 87.0Q75.8 86.8 76.5 86.8L76.5 86.8Q77.4 86.8 78.0 87.3Q78.7 87.7 79.1 88.5Q79.5 89.3 79.5 90.5L79.5 90.5Q79.5 91.6 79.1 92.4Q78.7 93.3 78.0 93.7Q77.4 94.2 76.5 94.2ZM76.3 93.1L76.3 93.1Q77.0 93.1 77.4 92.8Q77.9 92.4 78.1 91.8Q78.3 91.2 78.3 90.5L78.3 90.5Q78.3 89.7 78.1 89.1Q77.9 88.5 77.4 88.2Q77.0 87.8 76.3 87.8L76.3 87.8Q75.6 87.8 75.2 88.2Q74.8 88.5 74.5 89.1Q74.3 89.7 74.3 90.5L74.3 90.5Q74.3 91.2 74.5 91.8Q74.8 92.5 75.2 92.8Q75.7 93.1 76.3 93.1ZM81.1 84.5L82.3 84.5L82.3 94L81.1 94L81.1 84.5ZM87.3 94.2L87.3 94.2Q86.2 94.2 85.5 93.7Q84.7 93.2 84.3 92.4Q83.9 91.6 83.9 90.5Q83.9 89.4 84.3 88.6Q84.7 87.8 85.4 87.3Q86.2 86.8 87.1 86.8L87.1 86.8Q87.7 86.8 88.2 87.0Q88.8 87.2 89.2 87.6Q89.7 88.0 90.0 88.7Q90.2 89.4 90.2 90.4L90.2 90.4L90.2 90.8L85.1 90.8Q85.1 91.5 85.4 92.0L85.4 92.0Q85.6 92.6 86.1 92.9Q86.6 93.1 87.3 93.1L87.3 93.1Q87.7 93.1 88.0 93.0Q88.4 92.9 88.6 92.7Q88.9 92.4 89.0 92.0L89.0 92.0L90.1 92.3Q89.9 92.9 89.6 93.3Q89.2 93.7 88.6 93.9Q88.0 94.2 87.3 94.2ZM85.1 89.9L85.1 89.9L89.1 89.9Q89.0 89.4 88.9 89.0L88.9 89.0Q88.6 88.4 88.2 88.1Q87.8 87.8 87.1 87.8Q86.5 87.8 86.0 88.1Q85.6 88.5 85.3 89.0L85.3 89.0Q85.1 89.4 85.1 89.9Z M97.7 86.9L99.3 86.9L99.3 87.9L97.7 87.9L97.7 94L96.5 94L96.5 87.9L95.1 87.9L95.1 86.9L96.5 86.9L96.5 86.0Q96.5 85.3 96.8 84.9Q97.1 84.5 97.6 84.3Q98.0 84.1 98.5 84.1L98.5 84.1Q98.9 84.1 99.2 84.2Q99.5 84.2 99.6 84.3L99.6 84.3L99.3 85.3Q99.2 85.2 99.1 85.2Q98.9 85.2 98.7 85.2L98.7 85.2Q98.1 85.2 97.9 85.4Q97.7 85.7 97.7 86.2L97.7 86.2L97.7 86.9ZM103.7 94.2L103.7 94.2Q102.7 94.2 102.0 93.7Q101.3 93.2 100.9 92.4Q100.5 91.6 100.5 90.5L100.5 90.5Q100.5 89.4 100.9 88.6Q101.3 87.7 102.0 87.3Q102.7 86.8 103.7 86.8L103.7 86.8Q104.7 86.8 105.4 87.3Q106.1 87.7 106.5 88.6Q106.9 89.4 106.9 90.5L106.9 90.5Q106.9 91.6 106.5 92.4Q106.1 93.2 105.4 93.7Q104.7 94.2 103.7 94.2ZM103.7 93.1L103.7 93.1Q104.4 93.1 104.9 92.8Q105.3 92.4 105.6 91.8Q105.8 91.2 105.8 90.5L105.8 90.5Q105.8 89.8 105.6 89.2Q105.3 88.6 104.9 88.2Q104.4 87.8 103.7 87.8L103.7 87.8Q103.0 87.8 102.5 88.2Q102.1 88.6 101.9 89.2Q101.6 89.8 101.6 90.5L101.6 90.5Q101.6 91.2 101.9 91.8Q102.1 92.4 102.5 92.8Q103.0 93.1 103.7 93.1ZM109.8 94L108.6 94L108.6 86.9L109.7 86.9L109.7 88.0L109.8 88.0Q110.0 87.5 110.5 87.1Q111.0 86.8 111.6 86.8L111.6 86.8Q111.8 86.8 111.9 86.8Q112.1 86.8 112.2 86.8L112.2 86.8L112.2 88.0Q112.2 88.0 112.0 87.9Q111.8 87.9 111.5 87.9L111.5 87.9Q111.0 87.9 110.6 88.1Q110.2 88.3 110.0 88.7Q109.8 89.1 109.8 89.6L109.8 89.6L109.8 94Z M118.7 86.9L120.3 86.9L120.3 87.9L118.7 87.9L118.7 94L117.5 94L117.5 87.9L116.1 87.9L116.1 86.9L117.5 86.9L117.5 86.0Q117.5 85.3 117.8 84.9Q118.1 84.5 118.6 84.3Q119.0 84.1 119.5 84.1L119.5 84.1Q119.9 84.1 120.2 84.2Q120.5 84.2 120.6 84.3L120.6 84.3L120.3 85.3Q120.2 85.2 120.1 85.2Q119.9 85.2 119.7 85.2L119.7 85.2Q119.1 85.2 118.9 85.4Q118.7 85.7 118.7 86.2L118.7 86.2L118.7 86.9ZM123.0 94L121.8 94L121.8 86.9L122.9 86.9L122.9 88.0L123.0 88.0Q123.2 87.5 123.7 87.1Q124.2 86.8 124.8 86.8L124.8 86.8Q125.0 86.8 125.1 86.8Q125.3 86.8 125.4 86.8L125.4 86.8L125.4 88.0Q125.4 88.0 125.2 87.9Q125.0 87.9 124.7 87.9L124.7 87.9Q124.2 87.9 123.8 88.1Q123.4 88.3 123.2 88.7Q123.0 89.1 123.0 89.6L123.0 89.6L123.0 94ZM129.7 94.2L129.7 94.2Q128.7 94.2 127.9 93.7Q127.2 93.2 126.8 92.4Q126.4 91.6 126.4 90.5Q126.4 89.4 126.8 88.6Q127.2 87.8 127.9 87.3Q128.6 86.8 129.6 86.8L129.6 86.8Q130.1 86.8 130.7 87.0Q131.2 87.2 131.7 87.6Q132.1 88.0 132.4 88.7Q132.6 89.4 132.6 90.4L132.6 90.4L132.6 90.8L127.5 90.8Q127.5 91.5 127.8 92.0L127.8 92.0Q128.1 92.6 128.6 92.9Q129.1 93.1 129.7 93.1L129.7 93.1Q130.1 93.1 130.5 93.0Q130.8 92.9 131.1 92.7Q131.3 92.4 131.4 92.0L131.4 92.0L132.5 92.3Q132.4 92.9 132.0 93.3Q131.6 93.7 131.0 93.9Q130.4 94.2 129.7 94.2ZM127.5 89.9L127.5 89.9L131.5 89.9Q131.4 89.4 131.3 89.0L131.3 89.0Q131.1 88.4 130.6 88.1Q130.2 87.8 129.6 87.8Q128.9 87.8 128.5 88.1Q128.0 88.5 127.8 89.0L127.8 89.0Q127.6 89.4 127.5 89.9ZM137.3 94.2L137.3 94.2Q136.2 94.2 135.5 93.7Q134.8 93.2 134.3 92.4Q133.9 91.6 133.9 90.5Q133.9 89.4 134.3 88.6Q134.7 87.8 135.5 87.3Q136.2 86.8 137.1 86.8L137.1 86.8Q137.7 86.8 138.3 87.0Q138.8 87.2 139.2 87.6Q139.7 88.0 140.0 88.7Q140.2 89.4 140.2 90.4L140.2 90.4L140.2 90.8L135.1 90.8Q135.1 91.5 135.4 92.0L135.4 92.0Q135.6 92.6 136.1 92.9Q136.6 93.1 137.3 93.1L137.3 93.1Q137.7 93.1 138.0 93.0Q138.4 92.9 138.6 92.7Q138.9 92.4 139.0 92.0L139.0 92.0L140.1 92.3Q139.9 92.9 139.6 93.3Q139.2 93.7 138.6 93.9Q138.0 94.2 137.3 94.2ZM135.1 89.9L135.1 89.9L139.1 89.9Q139.0 89.4 138.9 89.0L138.9 89.0Q138.6 88.4 138.2 88.1Q137.8 87.8 137.1 87.8Q136.5 87.8 136.0 88.1Q135.6 88.5 135.3 89.0L135.3 89.0Q135.1 89.4 135.1 89.9ZM141.9 84.5L143.0 84.5L143.0 94L141.9 94L141.9 84.5ZM147.0 94.2L147.0 94.2Q146.3 94.2 145.8 93.9Q145.2 93.7 144.9 93.2Q144.6 92.7 144.6 92.0L144.6 92.0Q144.6 91.4 144.8 91.0Q145.1 90.6 145.5 90.4Q145.9 90.2 146.4 90.1Q146.8 90.0 147.3 89.9L147.3 89.9Q148.0 89.8 148.4 89.8Q148.8 89.7 149.0 89.6Q149.2 89.5 149.2 89.2L149.2 89.2L149.2 89.2Q149.2 88.8 149.0 88.5Q148.8 88.1 148.5 88.0Q148.2 87.8 147.7 87.8L147.7 87.8Q147.2 87.8 146.8 88.0Q146.4 88.1 146.2 88.4Q146.0 88.6 145.9 88.9L145.9 88.9L144.8 88.5Q145.1 87.8 145.5 87.5Q146.0 87.1 146.5 87.0Q147.1 86.8 147.6 86.8L147.6 86.8Q148.0 86.8 148.5 86.9Q148.9 87.0 149.3 87.2Q149.8 87.5 150.0 88.0Q150.3 88.5 150.3 89.3L150.3 89.3L150.3 94L149.2 94L149.2 93.0L149.1 93.0Q149.0 93.3 148.7 93.5Q148.5 93.8 148.0 94.0Q147.6 94.2 147.0 94.2ZM147.2 93.2L147.2 93.2Q147.8 93.2 148.3 92.9Q148.7 92.7 148.9 92.3Q149.2 91.9 149.2 91.4L149.2 91.4L149.2 90.5Q149.1 90.5 148.9 90.6Q148.6 90.7 148.3 90.7Q148.0 90.8 147.7 90.8Q147.5 90.8 147.3 90.9L147.3 90.9Q146.9 90.9 146.5 91.0Q146.2 91.2 145.9 91.4Q145.7 91.6 145.7 92.0L145.7 92.0Q145.7 92.4 145.9 92.7Q146.1 92.9 146.4 93.0Q146.8 93.2 147.2 93.2ZM153.5 89.7L153.5 89.7L153.5 94L152.3 94L152.3 86.9L153.4 86.9L153.4 88.2Q153.7 87.6 154.2 87.2L154.2 87.2Q154.8 86.8 155.6 86.8L155.6 86.8Q156.3 86.8 156.8 87.1Q157.4 87.4 157.7 88.0Q158.0 88.6 158.0 89.5L158.0 89.5L158.0 94L156.8 94L156.8 89.6Q156.8 88.8 156.4 88.3Q156.0 87.8 155.2 87.8L155.2 87.8Q154.7 87.8 154.3 88.1Q153.9 88.3 153.7 88.7Q153.5 89.1 153.5 89.7ZM162.9 94.2L162.9 94.2Q161.9 94.2 161.2 93.7Q160.5 93.2 160.1 92.4Q159.7 91.6 159.7 90.5L159.7 90.5Q159.7 89.4 160.1 88.6Q160.5 87.7 161.2 87.3Q161.9 86.8 162.9 86.8L162.9 86.8Q163.4 86.8 163.9 86.9Q164.3 87.1 164.7 87.3Q165.1 87.6 165.3 87.9Q165.6 88.3 165.8 88.8L165.8 88.8L164.7 89.1Q164.6 88.8 164.4 88.6Q164.3 88.4 164.0 88.2Q163.8 88.0 163.5 87.9Q163.2 87.8 162.9 87.8L162.9 87.8Q162.2 87.8 161.7 88.2Q161.3 88.6 161.0 89.2Q160.8 89.8 160.8 90.5L160.8 90.5Q160.8 91.2 161.0 91.8Q161.3 92.4 161.7 92.8Q162.2 93.1 162.9 93.1L162.9 93.1Q163.2 93.1 163.5 93.0Q163.8 92.9 164.1 92.8Q164.3 92.6 164.5 92.3Q164.6 92.1 164.7 91.8L164.7 91.8L165.8 92.1Q165.6 92.6 165.4 93.0Q165.1 93.4 164.7 93.6Q164.3 93.9 163.9 94.0Q163.4 94.2 162.9 94.2ZM170.4 94.2L170.4 94.2Q169.4 94.2 168.6 93.7Q167.9 93.2 167.5 92.4Q167.1 91.6 167.1 90.5Q167.1 89.4 167.5 88.6Q167.9 87.8 168.6 87.3Q169.3 86.8 170.3 86.8L170.3 86.8Q170.8 86.8 171.4 87.0Q171.9 87.2 172.4 87.6Q172.8 88.0 173.1 88.7Q173.4 89.4 173.4 90.4L173.4 90.4L173.4 90.8L168.2 90.8Q168.3 91.5 168.5 92.0L168.5 92.0Q168.8 92.6 169.3 92.9Q169.8 93.1 170.4 93.1L170.4 93.1Q170.8 93.1 171.2 93.0Q171.5 92.9 171.8 92.7Q172.0 92.4 172.1 92.0L172.1 92.0L173.2 92.3Q173.1 92.9 172.7 93.3Q172.3 93.7 171.7 93.9Q171.1 94.2 170.4 94.2ZM168.2 89.9L168.2 89.9L172.2 89.9Q172.2 89.4 172.0 89.0L172.0 89.0Q171.8 88.4 171.3 88.1Q170.9 87.8 170.3 87.8Q169.6 87.8 169.2 88.1Q168.7 88.5 168.5 89.0L168.5 89.0Q168.3 89.4 168.2 89.9Z M179.1 96.7L178.0 96.7L178.0 86.9L179.1 86.9L179.1 88.0L179.2 88.0Q179.4 87.8 179.6 87.6Q179.8 87.3 180.2 87.0Q180.6 86.8 181.3 86.8L181.3 86.8Q182.2 86.8 182.9 87.3Q183.5 87.7 183.9 88.5Q184.3 89.3 184.3 90.5L184.3 90.5Q184.3 91.6 183.9 92.4Q183.5 93.3 182.9 93.7Q182.2 94.2 181.3 94.2L181.3 94.2Q180.6 94.2 180.2 93.9Q179.8 93.7 179.6 93.4Q179.4 93.1 179.2 92.9L179.2 92.9L179.1 92.9L179.1 96.7ZM181.1 93.1L181.1 93.1Q181.8 93.1 182.2 92.8Q182.7 92.4 182.9 91.8Q183.1 91.2 183.1 90.5L183.1 90.5Q183.1 89.7 182.9 89.1Q182.7 88.5 182.2 88.2Q181.8 87.8 181.1 87.8L181.1 87.8Q180.5 87.8 180.0 88.2Q179.6 88.5 179.4 89.1Q179.1 89.7 179.1 90.5L179.1 90.5Q179.1 91.2 179.4 91.8Q179.6 92.5 180.0 92.8Q180.5 93.1 181.1 93.1ZM187.1 94L186.0 94L186.0 86.9L187.1 86.9L187.1 88.0L187.1 88.0Q187.3 87.5 187.8 87.1Q188.3 86.8 189.0 86.8L189.0 86.8Q189.1 86.8 189.3 86.8Q189.5 86.8 189.6 86.8L189.6 86.8L189.6 88.0Q189.5 88.0 189.3 87.9Q189.1 87.9 188.9 87.9L188.9 87.9Q188.4 87.9 188.0 88.1Q187.6 88.3 187.3 88.7Q187.1 89.1 187.1 89.6L187.1 89.6L187.1 94ZM193.7 94.2L193.7 94.2Q192.8 94.2 192.1 93.7Q191.3 93.2 190.9 92.4Q190.5 91.6 190.5 90.5L190.5 90.5Q190.5 89.4 190.9 88.6Q191.3 87.7 192.1 87.3Q192.8 86.8 193.7 86.8L193.7 86.8Q194.7 86.8 195.4 87.3Q196.2 87.7 196.6 88.6Q197.0 89.4 197.0 90.5L197.0 90.5Q197.0 91.6 196.6 92.4Q196.2 93.2 195.4 93.7Q194.7 94.2 193.7 94.2ZM193.7 93.1L193.7 93.1Q194.5 93.1 194.9 92.8Q195.4 92.4 195.6 91.8Q195.8 91.2 195.8 90.5L195.8 90.5Q195.8 89.8 195.6 89.2Q195.4 88.6 194.9 88.2Q194.5 87.8 193.7 87.8L193.7 87.8Q193.0 87.8 192.6 88.2Q192.1 88.6 191.9 89.2Q191.7 89.8 191.7 90.5L191.7 90.5Q191.7 91.2 191.9 91.8Q192.1 92.4 192.6 92.8Q193.0 93.1 193.7 93.1ZM198.6 94.5L198.6 86.9L199.8 86.9L199.8 94.5Q199.8 95.2 199.6 95.7Q199.3 96.1 198.9 96.4Q198.4 96.7 197.7 96.7L197.7 96.7L197.5 96.7L197.5 95.6L197.7 95.6Q198.2 95.6 198.4 95.3Q198.6 95.0 198.6 94.5L198.6 94.5ZM199.2 85.7L199.2 85.7Q198.9 85.7 198.7 85.5Q198.4 85.3 198.4 85.0L198.4 85.0Q198.4 84.7 198.7 84.4Q198.9 84.2 199.2 84.2L199.2 84.2Q199.6 84.2 199.8 84.4Q200.0 84.7 200.0 85.0L200.0 85.0Q200.0 85.3 199.8 85.5Q199.6 85.7 199.2 85.7ZM204.8 94.2L204.8 94.2Q203.8 94.2 203.0 93.7Q202.3 93.2 201.9 92.4Q201.5 91.6 201.5 90.5Q201.5 89.4 201.9 88.6Q202.2 87.8 203.0 87.3Q203.7 86.8 204.7 86.8L204.7 86.8Q205.2 86.8 205.8 87.0Q206.3 87.2 206.8 87.6Q207.2 88.0 207.5 88.7Q207.7 89.4 207.7 90.4L207.7 90.4L207.7 90.8L202.6 90.8Q202.6 91.5 202.9 92.0L202.9 92.0Q203.2 92.6 203.7 92.9Q204.1 93.1 204.8 93.1L204.8 93.1Q205.2 93.1 205.6 93.0Q205.9 92.9 206.1 92.7Q206.4 92.4 206.5 92.0L206.5 92.0L207.6 92.3Q207.5 92.9 207.1 93.3Q206.7 93.7 206.1 93.9Q205.5 94.2 204.8 94.2ZM202.6 89.9L202.6 89.9L206.6 89.9Q206.5 89.4 206.4 89.0L206.4 89.0Q206.2 88.4 205.7 88.1Q205.3 87.8 204.7 87.8Q204.0 87.8 203.6 88.1Q203.1 88.5 202.9 89.0L202.9 89.0Q202.7 89.4 202.6 89.9ZM212.3 94.2L212.3 94.2Q211.3 94.2 210.6 93.7Q209.8 93.2 209.4 92.4Q209.0 91.6 209.0 90.5L209.0 90.5Q209.0 89.4 209.4 88.6Q209.8 87.7 210.6 87.3Q211.3 86.8 212.3 86.8L212.3 86.8Q212.8 86.8 213.2 86.9Q213.7 87.1 214.1 87.3Q214.5 87.6 214.7 87.9Q215.0 88.3 215.1 88.8L215.1 88.8L214.0 89.1Q214.0 88.8 213.8 88.6Q213.7 88.4 213.4 88.2Q213.2 88.0 212.9 87.9Q212.6 87.8 212.3 87.8L212.3 87.8Q211.6 87.8 211.1 88.2Q210.6 88.6 210.4 89.2Q210.2 89.8 210.2 90.5L210.2 90.5Q210.2 91.2 210.4 91.8Q210.6 92.4 211.1 92.8Q211.6 93.1 212.3 93.1L212.3 93.1Q212.6 93.1 212.9 93.0Q213.2 92.9 213.5 92.8Q213.7 92.6 213.8 92.3Q214.0 92.1 214.1 91.8L214.1 91.8L215.2 92.1Q215.0 92.6 214.8 93.0Q214.5 93.4 214.1 93.6Q213.7 93.9 213.3 94.0Q212.8 94.2 212.3 94.2ZM218.1 86.9L219.6 86.9L219.6 87.9L218.1 87.9L218.1 92.2Q218.1 92.6 218.3 92.9Q218.5 93.1 219.0 93.1L219.0 93.1Q219.1 93.1 219.3 93.0Q219.4 93.0 219.6 93.0L219.6 93.0L219.8 94.0Q219.6 94.0 219.4 94.1Q219.2 94.1 218.9 94.1L218.9 94.1Q218.0 94.1 217.5 93.6Q217.0 93.1 217.0 92.2L217.0 92.2L217.0 87.9L215.9 87.9L215.9 86.9L217.0 86.9L217.0 85.2L218.1 85.2L218.1 86.9ZM223.5 94.2L223.5 94.2Q222.7 94.2 222.2 93.9Q221.6 93.7 221.2 93.3Q220.9 92.9 220.7 92.3L220.7 92.3L221.8 92.0Q222.0 92.6 222.4 92.9Q222.8 93.1 223.5 93.1L223.5 93.1Q224.2 93.1 224.6 92.8Q225.1 92.5 225.1 92.1L225.1 92.1Q225.1 91.7 224.8 91.5Q224.6 91.2 224.0 91.1L224.0 91.1L222.9 90.8Q221.9 90.6 221.4 90.1Q221.0 89.6 221.0 88.9L221.0 88.9Q221.0 88.3 221.3 87.8Q221.6 87.3 222.2 87.1Q222.8 86.8 223.6 86.8L223.6 86.8Q224.3 86.8 224.8 87.0Q225.3 87.3 225.7 87.6Q226.0 88.0 226.1 88.5L226.1 88.5L225.1 88.8Q225.0 88.4 224.6 88.1Q224.3 87.8 223.6 87.8L223.6 87.8Q223.0 87.8 222.5 88.1Q222.1 88.4 222.1 88.8L222.1 88.8Q222.1 89.2 222.4 89.4Q222.7 89.7 223.3 89.8L223.3 89.8L224.4 90.1Q225.3 90.3 225.8 90.8Q226.3 91.3 226.3 92.0L226.3 92.0Q226.3 92.6 225.9 93.1Q225.6 93.6 224.9 93.9Q224.3 94.2 223.5 94.2ZM228.6 96.3L227.7 96.3L228.3 92.7L229.6 92.7L228.6 96.3Z M238.4 94.2L238.4 94.2Q237.7 94.2 237.1 93.9Q236.5 93.7 236.2 93.3Q235.8 92.9 235.7 92.3L235.7 92.3L236.8 92.0Q236.9 92.6 237.3 92.9Q237.8 93.1 238.4 93.1L238.4 93.1Q239.1 93.1 239.6 92.8Q240.0 92.5 240.0 92.1L240.0 92.1Q240.0 91.7 239.8 91.5Q239.5 91.2 239.0 91.1L239.0 91.1L237.8 90.8Q236.8 90.6 236.4 90.1Q235.9 89.6 235.9 88.9L235.9 88.9Q235.9 88.3 236.2 87.8Q236.6 87.3 237.2 87.1Q237.8 86.8 238.5 86.8L238.5 86.8Q239.3 86.8 239.8 87.0Q240.3 87.3 240.6 87.6Q240.9 88.0 241.1 88.5L241.1 88.5L240.0 88.8Q239.9 88.4 239.6 88.1Q239.2 87.8 238.5 87.8L238.5 87.8Q237.9 87.8 237.5 88.1Q237.1 88.4 237.1 88.8L237.1 88.8Q237.1 89.2 237.3 89.4Q237.6 89.7 238.3 89.8L238.3 89.8L239.3 90.1Q240.3 90.3 240.8 90.8Q241.2 91.3 241.2 92.0L241.2 92.0Q241.2 92.6 240.9 93.1Q240.5 93.6 239.9 93.9Q239.2 94.2 238.4 94.2ZM245.8 94.2L245.8 94.2Q244.8 94.2 244.1 93.7Q243.3 93.2 242.9 92.4Q242.5 91.6 242.5 90.5L242.5 90.5Q242.5 89.4 242.9 88.6Q243.3 87.7 244.1 87.3Q244.8 86.8 245.8 86.8L245.8 86.8Q246.7 86.8 247.5 87.3Q248.2 87.7 248.6 88.6Q249.0 89.4 249.0 90.5L249.0 90.5Q249.0 91.6 248.6 92.4Q248.2 93.2 247.5 93.7Q246.7 94.2 245.8 94.2ZM245.8 93.1L245.8 93.1Q246.5 93.1 246.9 92.8Q247.4 92.4 247.6 91.8Q247.8 91.2 247.8 90.5L247.8 90.5Q247.8 89.8 247.6 89.2Q247.4 88.6 246.9 88.2Q246.5 87.8 245.8 87.8L245.8 87.8Q245.0 87.8 244.6 88.2Q244.1 88.6 243.9 89.2Q243.7 89.8 243.7 90.5L243.7 90.5Q243.7 91.2 243.9 91.8Q244.1 92.4 244.6 92.8Q245.0 93.1 245.8 93.1ZM252.3 86.9L254.0 86.9L254.0 87.9L252.3 87.9L252.3 94L251.2 94L251.2 87.9L249.8 87.9L249.8 86.9L251.2 86.9L251.2 86.0Q251.2 85.3 251.5 84.9Q251.8 84.5 252.2 84.3Q252.7 84.1 253.2 84.1L253.2 84.1Q253.6 84.1 253.9 84.2Q254.1 84.2 254.3 84.3L254.3 84.3L253.9 85.3Q253.9 85.2 253.7 85.2Q253.6 85.2 253.3 85.2L253.3 85.2Q252.8 85.2 252.6 85.4Q252.3 85.7 252.3 86.2L252.3 86.2L252.3 86.9ZM256.8 86.9L258.3 86.9L258.3 87.9L256.8 87.9L256.8 92.2Q256.8 92.6 257.0 92.9Q257.2 93.1 257.6 93.1L257.6 93.1Q257.8 93.1 257.9 93.0Q258.1 93.0 258.2 93.0L258.2 93.0L258.5 94.0Q258.3 94.0 258.1 94.1Q257.8 94.1 257.6 94.1L257.6 94.1Q256.7 94.1 256.2 93.6Q255.7 93.1 255.7 92.2L255.7 92.2L255.7 87.9L254.6 87.9L254.6 86.9L255.7 86.9L255.7 85.2L256.8 85.2L256.8 86.9ZM262.5 94L261.3 94L259.2 86.9L260.4 86.9L261.2 90.0Q261.4 90.6 261.6 91.4L261.6 91.4Q261.8 92.0 261.9 92.8L261.9 92.8Q262.1 92.1 262.2 91.5L262.2 91.5Q262.4 90.7 262.6 90.0L262.6 90.0L263.4 86.9L264.7 86.9L265.5 90.0Q265.7 90.7 265.9 91.5L265.9 91.5Q266.0 92.1 266.2 92.8L266.2 92.8Q266.3 92.1 266.5 91.5L266.5 91.5Q266.7 90.7 266.8 90.0L266.8 90.0L267.7 86.9L268.9 86.9L266.8 94L265.6 94L264.7 90.8Q264.6 90.3 264.4 89.8Q264.3 89.3 264.2 88.8L264.2 88.8Q264.1 88.5 264.0 88.2L264.0 88.2Q264.0 88.5 263.9 88.7L263.9 88.7Q263.8 89.3 263.6 89.8Q263.5 90.3 263.4 90.8L263.4 90.8L262.5 94ZM272.3 94.2L272.3 94.2Q271.7 94.2 271.1 93.9Q270.6 93.7 270.3 93.2Q269.9 92.7 269.9 92.0L269.9 92.0Q269.9 91.4 270.2 91.0Q270.4 90.6 270.8 90.4Q271.2 90.2 271.7 90.1Q272.2 90.0 272.7 89.9L272.7 89.9Q273.3 89.8 273.7 89.8Q274.1 89.7 274.3 89.6Q274.5 89.5 274.5 89.2L274.5 89.2L274.5 89.2Q274.5 88.8 274.3 88.5Q274.2 88.1 273.9 88.0Q273.5 87.8 273.0 87.8L273.0 87.8Q272.5 87.8 272.2 88.0Q271.8 88.1 271.6 88.4Q271.3 88.6 271.2 88.9L271.2 88.9L270.1 88.5Q270.4 87.8 270.9 87.5Q271.3 87.1 271.9 87.0Q272.5 86.8 273.0 86.8L273.0 86.8Q273.4 86.8 273.8 86.9Q274.3 87.0 274.7 87.2Q275.1 87.5 275.4 88.0Q275.7 88.5 275.7 89.3L275.7 89.3L275.7 94L274.5 94L274.5 93.0L274.5 93.0Q274.3 93.3 274.1 93.5Q273.8 93.8 273.4 94.0Q273.0 94.2 272.3 94.2ZM272.5 93.2L272.5 93.2Q273.2 93.2 273.6 92.9Q274.1 92.7 274.3 92.3Q274.5 91.9 274.5 91.4L274.5 91.4L274.5 90.5Q274.4 90.5 274.2 90.6Q274.0 90.7 273.7 90.7Q273.4 90.8 273.1 90.8Q272.8 90.8 272.6 90.9L272.6 90.9Q272.2 90.9 271.9 91.0Q271.5 91.2 271.3 91.4Q271.1 91.6 271.1 92.0L271.1 92.0Q271.1 92.4 271.3 92.7Q271.5 92.9 271.8 93.0Q272.1 93.2 272.5 93.2ZM278.8 94L277.7 94L277.7 86.9L278.8 86.9L278.8 88.0L278.8 88.0Q279.0 87.5 279.5 87.1Q280.0 86.8 280.7 86.8L280.7 86.8Q280.8 86.8 281.0 86.8Q281.2 86.8 281.3 86.8L281.3 86.8L281.3 88.0Q281.2 88.0 281.0 87.9Q280.8 87.9 280.6 87.9L280.6 87.9Q280.1 87.9 279.7 88.1Q279.3 88.3 279.0 88.7Q278.8 89.1 278.8 89.6L278.8 89.6L278.8 94ZM285.5 94.2L285.5 94.2Q284.5 94.2 283.8 93.7Q283.0 93.2 282.6 92.4Q282.2 91.6 282.2 90.5Q282.2 89.4 282.6 88.6Q283.0 87.8 283.7 87.3Q284.4 86.8 285.4 86.8L285.4 86.8Q286.0 86.8 286.5 87.0Q287.1 87.2 287.5 87.6Q288.0 88.0 288.2 88.7Q288.5 89.4 288.5 90.4L288.5 90.4L288.5 90.8L283.4 90.8Q283.4 91.5 283.6 92.0L283.6 92.0Q283.9 92.6 284.4 92.9Q284.9 93.1 285.5 93.1L285.5 93.1Q286.0 93.1 286.3 93.0Q286.7 92.9 286.9 92.7Q287.1 92.4 287.3 92.0L287.3 92.0L288.4 92.3Q288.2 92.9 287.8 93.3Q287.4 93.7 286.9 93.9Q286.3 94.2 285.5 94.2ZM283.4 89.9L283.4 89.9L287.3 89.9Q287.3 89.4 287.1 89.0L287.1 89.0Q286.9 88.4 286.5 88.1Q286.0 87.8 285.4 87.8Q284.8 87.8 284.3 88.1Q283.9 88.5 283.6 89.0L283.6 89.0Q283.4 89.4 283.4 89.9Z M296.0 94.2L296.0 94.2Q295.0 94.2 294.2 93.7Q293.5 93.2 293.1 92.4Q292.7 91.6 292.7 90.5Q292.7 89.4 293.1 88.6Q293.4 87.8 294.2 87.3Q294.9 86.8 295.9 86.8L295.9 86.8Q296.4 86.8 297.0 87.0Q297.5 87.2 298.0 87.6Q298.4 88.0 298.7 88.7Q298.9 89.4 298.9 90.4L298.9 90.4L298.9 90.8L293.8 90.8Q293.8 91.5 294.1 92.0L294.1 92.0Q294.4 92.6 294.9 92.9Q295.3 93.1 296.0 93.1L296.0 93.1Q296.4 93.1 296.8 93.0Q297.1 92.9 297.3 92.7Q297.6 92.4 297.7 92.0L297.7 92.0L298.8 92.3Q298.7 92.9 298.3 93.3Q297.9 93.7 297.3 93.9Q296.7 94.2 296.0 94.2ZM293.8 89.9L293.8 89.9L297.8 89.9Q297.7 89.4 297.6 89.0L297.6 89.0Q297.4 88.4 296.9 88.1Q296.5 87.8 295.9 87.8Q295.2 87.8 294.8 88.1Q294.3 88.5 294.1 89.0L294.1 89.0Q293.9 89.4 293.8 89.9ZM301.7 89.7L301.7 89.7L301.7 94L300.6 94L300.6 86.9L301.7 86.9L301.7 88.2Q302.0 87.6 302.5 87.2L302.5 87.2Q303.1 86.8 303.9 86.8L303.9 86.8Q304.6 86.8 305.1 87.1Q305.7 87.4 306.0 88.0Q306.3 88.6 306.3 89.5L306.3 89.5L306.3 94L305.1 94L305.1 89.6Q305.1 88.8 304.7 88.3Q304.3 87.8 303.5 87.8L303.5 87.8Q303.0 87.8 302.6 88.1Q302.2 88.3 302.0 88.7Q301.7 89.1 301.7 89.7ZM311.1 96.8L311.1 96.8Q310.4 96.8 309.8 96.6Q309.2 96.4 308.8 96.1Q308.4 95.7 308.2 95.4L308.2 95.4L309.1 94.8Q309.3 95.0 309.5 95.2Q309.7 95.5 310.1 95.6Q310.5 95.8 311.1 95.8L311.1 95.8Q312.0 95.8 312.5 95.4Q313.1 95.0 313.1 94.1L313.1 94.1L313.1 92.7L313.0 92.7Q312.9 92.9 312.6 93.2Q312.4 93.5 312.0 93.7Q311.6 93.9 310.9 93.9L310.9 93.9Q310.1 93.9 309.4 93.5Q308.7 93.1 308.3 92.3Q307.9 91.5 307.9 90.4L307.9 90.4Q307.9 89.3 308.3 88.5Q308.7 87.7 309.4 87.3Q310.1 86.8 310.9 86.8L310.9 86.8Q311.6 86.8 312.0 87.0Q312.4 87.3 312.7 87.6Q312.9 87.8 313.0 88.0L313.0 88.0L313.1 88.0L313.1 86.9L314.2 86.9L314.2 94.2Q314.2 95.1 313.8 95.7Q313.4 96.3 312.7 96.5Q312.0 96.8 311.1 96.8ZM311.1 92.9L311.1 92.9Q311.8 92.9 312.2 92.6Q312.6 92.3 312.9 91.7Q313.1 91.2 313.1 90.4L313.1 90.4Q313.1 89.6 312.9 89.1Q312.6 88.5 312.2 88.2Q311.8 87.8 311.1 87.8L311.1 87.8Q310.4 87.8 310.0 88.2Q309.5 88.5 309.3 89.1Q309.1 89.7 309.1 90.4L309.1 90.4Q309.1 91.1 309.3 91.7Q309.5 92.2 310.0 92.6Q310.4 92.9 311.1 92.9ZM317.4 94L316.2 94L316.2 86.9L317.4 86.9L317.4 94ZM316.8 85.7L316.8 85.7Q316.5 85.7 316.3 85.5Q316.0 85.3 316.0 85.0L316.0 85.0Q316.0 84.7 316.3 84.4Q316.5 84.2 316.8 84.2L316.8 84.2Q317.1 84.2 317.4 84.4Q317.6 84.7 317.6 85.0L317.6 85.0Q317.6 85.3 317.4 85.5Q317.1 85.7 316.8 85.7ZM320.5 89.7L320.5 89.7L320.5 94L319.4 94L319.4 86.9L320.5 86.9L320.5 88.2Q320.8 87.6 321.3 87.2L321.3 87.2Q321.9 86.8 322.7 86.8L322.7 86.8Q323.4 86.8 323.9 87.1Q324.5 87.4 324.8 88.0Q325.1 88.6 325.1 89.5L325.1 89.5L325.1 94L323.9 94L323.9 89.6Q323.9 88.8 323.5 88.3Q323.1 87.8 322.3 87.8L322.3 87.8Q321.8 87.8 321.4 88.1Q321.0 88.3 320.8 88.7Q320.5 89.1 320.5 89.7ZM330.0 94.2L330.0 94.2Q329.0 94.2 328.3 93.7Q327.5 93.2 327.1 92.4Q326.7 91.6 326.7 90.5Q326.7 89.4 327.1 88.6Q327.5 87.8 328.2 87.3Q328.9 86.8 329.9 86.8L329.9 86.8Q330.5 86.8 331.0 87.0Q331.6 87.2 332.0 87.6Q332.5 88.0 332.7 88.7Q333.0 89.4 333.0 90.4L333.0 90.4L333.0 90.8L327.9 90.8Q327.9 91.5 328.1 92.0L328.1 92.0Q328.4 92.6 328.9 92.9Q329.4 93.1 330.1 93.1L330.1 93.1Q330.5 93.1 330.8 93.0Q331.2 92.9 331.4 92.7Q331.7 92.4 331.8 92.0L331.8 92.0L332.9 92.3Q332.7 92.9 332.3 93.3Q331.9 93.7 331.4 93.9Q330.8 94.2 330.0 94.2ZM327.9 89.9L327.9 89.9L331.8 89.9Q331.8 89.4 331.6 89.0L331.6 89.0Q331.4 88.4 331.0 88.1Q330.6 87.8 329.9 87.8Q329.3 87.8 328.8 88.1Q328.4 88.5 328.1 89.0L328.1 89.0Q327.9 89.4 327.9 89.9ZM337.6 94.2L337.6 94.2Q336.6 94.2 335.9 93.7Q335.1 93.2 334.7 92.4Q334.3 91.6 334.3 90.5Q334.3 89.4 334.7 88.6Q335.1 87.8 335.8 87.3Q336.5 86.8 337.5 86.8L337.5 86.8Q338.1 86.8 338.6 87.0Q339.2 87.2 339.6 87.6Q340.1 88.0 340.3 88.7Q340.6 89.4 340.6 90.4L340.6 90.4L340.6 90.8L335.5 90.8Q335.5 91.5 335.7 92.0L335.7 92.0Q336.0 92.6 336.5 92.9Q337.0 93.1 337.6 93.1L337.6 93.1Q338.1 93.1 338.4 93.0Q338.7 92.9 339.0 92.7Q339.2 92.4 339.4 92.0L339.4 92.0L340.5 92.3Q340.3 92.9 339.9 93.3Q339.5 93.7 338.9 93.9Q338.4 94.2 337.6 94.2ZM335.5 89.9L335.5 89.9L339.4 89.9Q339.4 89.4 339.2 89.0L339.2 89.0Q339.0 88.4 338.6 88.1Q338.1 87.8 337.5 87.8Q336.9 87.8 336.4 88.1Q335.9 88.5 335.7 89.0L335.7 89.0Q335.5 89.4 335.5 89.9ZM343.4 94L342.2 94L342.2 86.9L343.3 86.9L343.3 88.0L343.4 88.0Q343.6 87.5 344.1 87.1Q344.6 86.8 345.2 86.8L345.2 86.8Q345.4 86.8 345.5 86.8Q345.7 86.8 345.8 86.8L345.8 86.8L345.8 88.0Q345.8 88.0 345.6 87.9Q345.4 87.9 345.1 87.9L345.1 87.9Q344.6 87.9 344.2 88.1Q343.8 88.3 343.6 88.7Q343.4 89.1 343.4 89.6L343.4 89.6L343.4 94ZM348.3 94L347.1 94L347.1 86.9L348.3 86.9L348.3 94ZM347.7 85.7L347.7 85.7Q347.4 85.7 347.1 85.5Q346.9 85.3 346.9 85.0L346.9 85.0Q346.9 84.7 347.1 84.4Q347.4 84.2 347.7 84.2L347.7 84.2Q348.0 84.2 348.3 84.4Q348.5 84.7 348.5 85.0L348.5 85.0Q348.5 85.3 348.3 85.5Q348.0 85.7 347.7 85.7ZM351.4 89.7L351.4 89.7L351.4 94L350.3 94L350.3 86.9L351.4 86.9L351.4 88.2Q351.7 87.6 352.1 87.2L352.1 87.2Q352.7 86.8 353.5 86.8L353.5 86.8Q354.3 86.8 354.8 87.1Q355.3 87.4 355.6 88.0Q355.9 88.6 355.9 89.5L355.9 89.5L355.9 94L354.8 94L354.8 89.6Q354.8 88.8 354.4 88.3Q353.9 87.8 353.2 87.8L353.2 87.8Q352.7 87.8 352.3 88.1Q351.9 88.3 351.6 88.7Q351.4 89.1 351.4 89.7ZM360.8 96.8L360.8 96.8Q360.0 96.8 359.5 96.6Q358.9 96.4 358.5 96.1Q358.1 95.7 357.9 95.4L357.9 95.4L358.8 94.8Q359.0 95.0 359.2 95.2Q359.4 95.5 359.8 95.6Q360.2 95.8 360.8 95.8L360.8 95.8Q361.7 95.8 362.2 95.4Q362.8 95.0 362.8 94.1L362.8 94.1L362.8 92.7L362.7 92.7Q362.5 92.9 362.3 93.2Q362.1 93.5 361.7 93.7Q361.3 93.9 360.6 93.9L360.6 93.9Q359.7 93.9 359.1 93.5Q358.4 93.1 358.0 92.3Q357.6 91.5 357.6 90.4L357.6 90.4Q357.6 89.3 358.0 88.5Q358.4 87.7 359.1 87.3Q359.7 86.8 360.6 86.8L360.6 86.8Q361.3 86.8 361.7 87.0Q362.1 87.3 362.4 87.6Q362.6 87.8 362.7 88.0L362.7 88.0L362.8 88.0L362.8 86.9L363.9 86.9L363.9 94.2Q363.9 95.1 363.5 95.7Q363.1 96.3 362.4 96.5Q361.7 96.8 360.8 96.8ZM360.8 92.9L360.8 92.9Q361.4 92.9 361.9 92.6Q362.3 92.3 362.6 91.7Q362.8 91.2 362.8 90.4L362.8 90.4Q362.8 89.6 362.6 89.1Q362.3 88.5 361.9 88.2Q361.4 87.8 360.8 87.8L360.8 87.8Q360.1 87.8 359.7 88.2Q359.2 88.5 359.0 89.1Q358.8 89.7 358.8 90.4L358.8 90.4Q358.8 91.1 359.0 91.7Q359.2 92.2 359.7 92.6Q360.1 92.9 360.8 92.9Z M371.1 94L370.0 94L370.0 86.9L371.1 86.9L371.1 88.0L371.2 88.0Q371.4 87.5 371.9 87.1Q372.4 86.8 373.0 86.8L373.0 86.8Q373.2 86.8 373.3 86.8Q373.5 86.8 373.6 86.8L373.6 86.8L373.6 88.0Q373.6 88.0 373.3 87.9Q373.1 87.9 372.9 87.9L372.9 87.9Q372.4 87.9 372.0 88.1Q371.6 88.3 371.4 88.7Q371.1 89.1 371.1 89.6L371.1 89.6L371.1 94ZM377.8 94.2L377.8 94.2Q376.8 94.2 376.1 93.7Q375.4 93.2 375.0 92.4Q374.6 91.6 374.6 90.5L374.6 90.5Q374.6 89.4 375.0 88.6Q375.4 87.7 376.1 87.3Q376.8 86.8 377.8 86.8L377.8 86.8Q378.8 86.8 379.5 87.3Q380.2 87.7 380.6 88.6Q381.0 89.4 381.0 90.5L381.0 90.5Q381.0 91.6 380.6 92.4Q380.2 93.2 379.5 93.7Q378.8 94.2 377.8 94.2ZM377.8 93.1L377.8 93.1Q378.5 93.1 379.0 92.8Q379.4 92.4 379.7 91.8Q379.9 91.2 379.9 90.5L379.9 90.5Q379.9 89.8 379.7 89.2Q379.4 88.6 379.0 88.2Q378.5 87.8 377.8 87.8L377.8 87.8Q377.1 87.8 376.6 88.2Q376.2 88.6 375.9 89.2Q375.7 89.8 375.7 90.5L375.7 90.5Q375.7 91.2 375.9 91.8Q376.2 92.4 376.6 92.8Q377.1 93.1 377.8 93.1ZM382.7 84.5L383.8 84.5L383.8 94L382.7 94L382.7 84.5ZM388.8 94.2L388.8 94.2Q387.8 94.2 387.0 93.7Q386.3 93.2 385.9 92.4Q385.5 91.6 385.5 90.5Q385.5 89.4 385.9 88.6Q386.3 87.8 387.0 87.3Q387.7 86.8 388.7 86.8L388.7 86.8Q389.3 86.8 389.8 87.0Q390.4 87.2 390.8 87.6Q391.2 88.0 391.5 88.7Q391.8 89.4 391.8 90.4L391.8 90.4L391.8 90.8L386.7 90.8Q386.7 91.5 386.9 92.0L386.9 92.0Q387.2 92.6 387.7 92.9Q388.2 93.1 388.8 93.1L388.8 93.1Q389.2 93.1 389.6 93.0Q389.9 92.9 390.2 92.7Q390.4 92.4 390.6 92.0L390.6 92.0L391.7 92.3Q391.5 92.9 391.1 93.3Q390.7 93.7 390.1 93.9Q389.6 94.2 388.8 94.2ZM386.7 89.9L386.7 89.9L390.6 89.9Q390.6 89.4 390.4 89.0L390.4 89.0Q390.2 88.4 389.8 88.1Q389.3 87.8 388.7 87.8Q388.0 87.8 387.6 88.1Q387.1 88.5 386.9 89.0L386.9 89.0Q386.7 89.4 386.7 89.9ZM395.8 94.2L395.8 94.2Q395.1 94.2 394.5 93.9Q394.0 93.7 393.6 93.3Q393.2 92.9 393.1 92.3L393.1 92.3L394.2 92.0Q394.3 92.6 394.8 92.9Q395.2 93.1 395.8 93.1L395.8 93.1Q396.6 93.1 397.0 92.8Q397.4 92.5 397.4 92.1L397.4 92.1Q397.4 91.7 397.2 91.5Q396.9 91.2 396.4 91.1L396.4 91.1L395.2 90.8Q394.3 90.6 393.8 90.1Q393.3 89.6 393.3 88.9L393.3 88.9Q393.3 88.3 393.7 87.8Q394.0 87.3 394.6 87.1Q395.2 86.8 395.9 86.8L395.9 86.8Q396.7 86.8 397.2 87.0Q397.7 87.3 398.0 87.6Q398.3 88.0 398.5 88.5L398.5 88.5L397.5 88.8Q397.3 88.4 397.0 88.1Q396.6 87.8 396.0 87.8L396.0 87.8Q395.3 87.8 394.9 88.1Q394.5 88.4 394.5 88.8L394.5 88.8Q394.5 89.2 394.8 89.4Q395.0 89.7 395.7 89.8L395.7 89.8L396.7 90.1Q397.7 90.3 398.2 90.8Q398.6 91.3 398.6 92.0L398.6 92.0Q398.6 92.6 398.3 93.1Q397.9 93.6 397.3 93.9Q396.7 94.2 395.8 94.2Z M38.0 112.2L38.0 112.2Q37.3 112.2 36.8 111.9Q36.2 111.7 35.9 111.2Q35.6 110.7 35.6 110.0L35.6 110.0Q35.6 109.4 35.8 109.0Q36.1 108.6 36.5 108.4Q36.9 108.2 37.3 108.1Q37.8 108.0 38.3 107.9L38.3 107.9Q39.0 107.8 39.4 107.8Q39.8 107.7 40.0 107.6Q40.2 107.5 40.2 107.2L40.2 107.2L40.2 107.2Q40.2 106.8 40.0 106.5Q39.8 106.1 39.5 106.0Q39.2 105.8 38.7 105.8L38.7 105.8Q38.2 105.8 37.8 106.0Q37.4 106.1 37.2 106.4Q37.0 106.6 36.9 106.9L36.9 106.9L35.8 106.5Q36.0 105.8 36.5 105.5Q37.0 105.1 37.5 105.0Q38.1 104.8 38.6 104.8L38.6 104.8Q39.0 104.8 39.4 104.9Q39.9 105.0 40.3 105.2Q40.7 105.5 41.0 106.0Q41.3 106.5 41.3 107.3L41.3 107.3L41.3 112L40.2 112L40.2 111.0L40.1 111.0Q40.0 111.3 39.7 111.5Q39.4 111.8 39.0 112.0Q38.6 112.2 38.0 112.2ZM38.2 111.2L38.2 111.2Q38.8 111.2 39.3 110.9Q39.7 110.7 39.9 110.3Q40.2 109.9 40.2 109.4L40.2 109.4L40.2 108.5Q40.1 108.5 39.8 108.6Q39.6 108.7 39.3 108.7Q39.0 108.8 38.7 108.8Q38.4 108.8 38.3 108.9L38.3 108.9Q37.9 108.9 37.5 109.0Q37.2 109.2 36.9 109.4Q36.7 109.6 36.7 110.0L36.7 110.0Q36.7 110.4 36.9 110.7Q37.1 110.9 37.4 111.0Q37.8 111.2 38.2 111.2ZM44.4 107.7L44.4 107.7L44.4 112L43.3 112L43.3 104.9L44.4 104.9L44.4 106.2Q44.7 105.6 45.2 105.2L45.2 105.2Q45.8 104.8 46.6 104.8L46.6 104.8Q47.3 104.8 47.8 105.1Q48.4 105.4 48.7 106.0Q49.0 106.6 49.0 107.5L49.0 107.5L49.0 112L47.8 112L47.8 107.6Q47.8 106.8 47.4 106.3Q47.0 105.8 46.2 105.8L46.2 105.8Q45.7 105.8 45.3 106.1Q44.9 106.3 44.7 106.7Q44.4 107.1 44.4 107.7ZM53.6 112.2L53.6 112.2Q52.8 112.2 52.1 111.7Q51.4 111.3 51.0 110.4Q50.6 109.6 50.6 108.5L50.6 108.5Q50.6 107.3 51.0 106.5Q51.4 105.7 52.1 105.3Q52.8 104.8 53.6 104.8L53.6 104.8Q54.3 104.8 54.7 105.0Q55.2 105.3 55.4 105.6Q55.6 105.8 55.7 106.0L55.7 106.0L55.8 106.0L55.8 102.5L56.9 102.5L56.9 112L55.8 112L55.8 110.9L55.7 110.9Q55.6 111.1 55.4 111.4Q55.1 111.7 54.7 111.9Q54.3 112.2 53.6 112.2ZM53.8 111.1L53.8 111.1Q54.5 111.1 54.9 110.8Q55.4 110.5 55.6 109.8Q55.8 109.2 55.8 108.5L55.8 108.5Q55.8 107.7 55.6 107.1Q55.4 106.5 54.9 106.2Q54.5 105.8 53.8 105.8L53.8 105.8Q53.1 105.8 52.7 106.2Q52.2 106.5 52.0 107.1Q51.8 107.7 51.8 108.5L51.8 108.5Q51.8 109.2 52.0 109.8Q52.3 110.4 52.7 110.8Q53.2 111.1 53.8 111.1Z M65.4 112.2L65.4 112.2Q64.7 112.2 64.1 111.9Q63.5 111.7 63.2 111.3Q62.8 110.9 62.7 110.3L62.7 110.3L63.8 110.0Q63.9 110.6 64.3 110.9Q64.8 111.1 65.4 111.1L65.4 111.1Q66.1 111.1 66.6 110.8Q67.0 110.5 67.0 110.1L67.0 110.1Q67.0 109.7 66.8 109.5Q66.5 109.2 66.0 109.1L66.0 109.1L64.8 108.8Q63.8 108.6 63.4 108.1Q62.9 107.6 62.9 106.9L62.9 106.9Q62.9 106.3 63.2 105.8Q63.6 105.3 64.2 105.1Q64.8 104.8 65.5 104.8L65.5 104.8Q66.3 104.8 66.8 105.0Q67.3 105.3 67.6 105.6Q67.9 106.0 68.1 106.5L68.1 106.5L67.0 106.8Q66.9 106.4 66.6 106.1Q66.2 105.8 65.5 105.8L65.5 105.8Q64.9 105.8 64.5 106.1Q64.1 106.4 64.1 106.8L64.1 106.8Q64.1 107.2 64.3 107.4Q64.6 107.7 65.3 107.8L65.3 107.8L66.3 108.1Q67.3 108.3 67.8 108.8Q68.2 109.3 68.2 110.0L68.2 110.0Q68.2 110.6 67.9 111.1Q67.5 111.6 66.9 111.9Q66.2 112.2 65.4 112.2ZM71.2 104.9L72.7 104.9L72.7 105.9L71.2 105.9L71.2 110.2Q71.2 110.6 71.4 110.9Q71.6 111.1 72.0 111.1L72.0 111.1Q72.1 111.1 72.3 111.0Q72.5 111.0 72.6 111.0L72.6 111.0L72.9 112.0Q72.7 112.0 72.5 112.1Q72.2 112.1 72.0 112.1L72.0 112.1Q71.1 112.1 70.6 111.6Q70.1 111.1 70.1 110.2L70.1 110.2L70.1 105.9L69.0 105.9L69.0 104.9L70.1 104.9L70.1 103.2L71.2 103.2L71.2 104.9ZM75.3 112L74.1 112L74.1 104.9L75.2 104.9L75.2 106.0L75.3 106.0Q75.5 105.5 76.0 105.1Q76.5 104.8 77.1 104.8L77.1 104.8Q77.3 104.8 77.4 104.8Q77.6 104.8 77.7 104.8L77.7 104.8L77.7 106.0Q77.7 106.0 77.5 105.9Q77.3 105.9 77.0 105.9L77.0 105.9Q76.5 105.9 76.1 106.1Q75.7 106.3 75.5 106.7Q75.3 107.1 75.3 107.6L75.3 107.6L75.3 112ZM81.0 112.2L81.0 112.2Q80.3 112.2 79.8 111.9Q79.2 111.7 78.9 111.2Q78.6 110.7 78.6 110.0L78.6 110.0Q78.6 109.4 78.8 109.0Q79.1 108.6 79.5 108.4Q79.9 108.2 80.4 108.1Q80.8 108.0 81.3 107.9L81.3 107.9Q82.0 107.8 82.4 107.8Q82.8 107.7 83.0 107.6Q83.2 107.5 83.2 107.2L83.2 107.2L83.2 107.2Q83.2 106.8 83.0 106.5Q82.8 106.1 82.5 106.0Q82.2 105.8 81.7 105.8L81.7 105.8Q81.2 105.8 80.8 106.0Q80.4 106.1 80.2 106.4Q80.0 106.6 79.9 106.9L79.9 106.9L78.8 106.5Q79.1 105.8 79.5 105.5Q80.0 105.1 80.5 105.0Q81.1 104.8 81.6 104.8L81.6 104.8Q82.0 104.8 82.5 104.9Q82.9 105.0 83.3 105.2Q83.8 105.5 84.0 106.0Q84.3 106.5 84.3 107.3L84.3 107.3L84.3 112L83.2 112L83.2 111.0L83.1 111.0Q83.0 111.3 82.7 111.5Q82.5 111.8 82.0 112.0Q81.6 112.2 81.0 112.2ZM81.2 111.2L81.2 111.2Q81.8 111.2 82.3 110.9Q82.7 110.7 82.9 110.3Q83.2 109.9 83.2 109.4L83.2 109.4L83.2 108.5Q83.1 108.5 82.9 108.6Q82.6 108.7 82.3 108.7Q82.0 108.8 81.7 108.8Q81.5 108.8 81.3 108.9L81.3 108.9Q80.9 108.9 80.5 109.0Q80.2 109.2 79.9 109.4Q79.7 109.6 79.7 110.0L79.7 110.0Q79.7 110.4 79.9 110.7Q80.1 110.9 80.4 111.0Q80.8 111.2 81.2 111.2ZM87.6 104.9L89.1 104.9L89.1 105.9L87.6 105.9L87.6 110.2Q87.6 110.6 87.8 110.9Q88.0 111.1 88.5 111.1L88.5 111.1Q88.6 111.1 88.8 111.0Q88.9 111.0 89.1 111.0L89.1 111.0L89.3 112.0Q89.1 112.0 88.9 112.1Q88.7 112.1 88.5 112.1L88.5 112.1Q87.5 112.1 87.0 111.6Q86.5 111.1 86.5 110.2L86.5 110.2L86.5 105.9L85.4 105.9L85.4 104.9L86.5 104.9L86.5 103.2L87.6 103.2L87.6 104.9ZM93.5 112.2L93.5 112.2Q92.5 112.2 91.8 111.7Q91.0 111.2 90.6 110.4Q90.2 109.6 90.2 108.5Q90.2 107.4 90.6 106.6Q91.0 105.8 91.7 105.3Q92.4 104.8 93.4 104.8L93.4 104.8Q94.0 104.8 94.5 105.0Q95.1 105.2 95.5 105.6Q96.0 106.0 96.2 106.7Q96.5 107.4 96.5 108.4L96.5 108.4L96.5 108.8L91.4 108.8Q91.4 109.5 91.6 110.0L91.6 110.0Q91.9 110.6 92.4 110.9Q92.9 111.1 93.6 111.1L93.6 111.1Q94.0 111.1 94.3 111.0Q94.7 110.9 94.9 110.7Q95.2 110.4 95.3 110.0L95.3 110.0L96.4 110.3Q96.2 110.9 95.8 111.3Q95.4 111.7 94.9 111.9Q94.3 112.2 93.5 112.2ZM91.4 107.9L91.4 107.9L95.3 107.9Q95.3 107.4 95.1 107.0L95.1 107.0Q94.9 106.4 94.5 106.1Q94.1 105.8 93.4 105.8Q92.8 105.8 92.3 106.1Q91.9 106.5 91.6 107.0L91.6 107.0Q91.4 107.4 91.4 107.9ZM101.0 114.8L101.0 114.8Q100.2 114.8 99.7 114.6Q99.1 114.4 98.7 114.1Q98.3 113.7 98.1 113.4L98.1 113.4L99.0 112.8Q99.2 113.0 99.4 113.2Q99.6 113.5 100.0 113.6Q100.4 113.8 101.0 113.8L101.0 113.8Q101.9 113.8 102.4 113.4Q103.0 113.0 103.0 112.1L103.0 112.1L103.0 110.7L102.9 110.7Q102.7 110.9 102.5 111.2Q102.3 111.5 101.9 111.7Q101.5 111.9 100.8 111.9L100.8 111.9Q99.9 111.9 99.3 111.5Q98.6 111.1 98.2 110.3Q97.8 109.5 97.8 108.4L97.8 108.4Q97.8 107.3 98.2 106.5Q98.6 105.7 99.3 105.3Q99.9 104.8 100.8 104.8L100.8 104.8Q101.5 104.8 101.9 105.0Q102.3 105.3 102.5 105.6Q102.8 105.8 102.9 106.0L102.9 106.0L103.0 106.0L103.0 104.9L104.1 104.9L104.1 112.2Q104.1 113.1 103.7 113.7Q103.3 114.3 102.6 114.5Q101.9 114.8 101.0 114.8ZM101.0 110.9L101.0 110.9Q101.6 110.9 102.1 110.6Q102.5 110.3 102.8 109.7Q103.0 109.2 103.0 108.4L103.0 108.4Q103.0 107.6 102.8 107.1Q102.5 106.5 102.1 106.2Q101.6 105.8 101.0 105.8L101.0 105.8Q100.3 105.8 99.9 106.2Q99.4 106.5 99.2 107.1Q99.0 107.7 99.0 108.4L99.0 108.4Q99.0 109.1 99.2 109.7Q99.4 110.2 99.9 110.6Q100.3 110.9 101.0 110.9ZM107.3 112L106.1 112L106.1 104.9L107.3 104.9L107.3 112ZM106.7 103.7L106.7 103.7Q106.4 103.7 106.1 103.5Q105.9 103.3 105.9 103.0L105.9 103.0Q105.9 102.7 106.1 102.4Q106.4 102.2 106.7 102.2L106.7 102.2Q107.0 102.2 107.3 102.4Q107.5 102.7 107.5 103.0L107.5 103.0Q107.5 103.3 107.3 103.5Q107.0 103.7 106.7 103.7ZM112.2 112.2L112.2 112.2Q111.2 112.2 110.5 111.7Q109.7 111.2 109.3 110.4Q108.9 109.6 108.9 108.5L108.9 108.5Q108.9 107.4 109.3 106.6Q109.7 105.7 110.5 105.3Q111.2 104.8 112.2 104.8L112.2 104.8Q112.7 104.8 113.1 104.9Q113.6 105.1 114.0 105.3Q114.3 105.6 114.6 105.9Q114.9 106.3 115.0 106.8L115.0 106.8L113.9 107.1Q113.9 106.8 113.7 106.6Q113.5 106.4 113.3 106.2Q113.1 106.0 112.8 105.9Q112.5 105.8 112.2 105.8L112.2 105.8Q111.4 105.8 111.0 106.2Q110.5 106.6 110.3 107.2Q110.1 107.8 110.1 108.5L110.1 108.5Q110.1 109.2 110.3 109.8Q110.5 110.4 111.0 110.8Q111.4 111.1 112.2 111.1L112.2 111.1Q112.5 111.1 112.8 111.0Q113.1 110.9 113.3 110.8Q113.6 110.6 113.7 110.3Q113.9 110.1 114.0 109.8L114.0 109.8L115.1 110.1Q114.9 110.6 114.6 111.0Q114.4 111.4 114.0 111.6Q113.6 111.9 113.1 112.0Q112.7 112.2 112.2 112.2Z M122.9 112.2L122.9 112.2Q121.9 112.2 121.2 111.7Q120.5 111.2 120.1 110.4Q119.7 109.6 119.7 108.5L119.7 108.5Q119.7 107.4 120.1 106.6Q120.5 105.7 121.2 105.3Q121.9 104.8 122.9 104.8L122.9 104.8Q123.4 104.8 123.9 104.9Q124.3 105.1 124.7 105.3Q125.1 105.6 125.3 105.9Q125.6 106.3 125.8 106.8L125.8 106.8L124.7 107.1Q124.6 106.8 124.4 106.6Q124.3 106.4 124.0 106.2Q123.8 106.0 123.5 105.9Q123.2 105.8 122.9 105.8L122.9 105.8Q122.2 105.8 121.7 106.2Q121.3 106.6 121.0 107.2Q120.8 107.8 120.8 108.5L120.8 108.5Q120.8 109.2 121.0 109.8Q121.3 110.4 121.7 110.8Q122.2 111.1 122.9 111.1L122.9 111.1Q123.2 111.1 123.5 111.0Q123.8 110.9 124.1 110.8Q124.3 110.6 124.5 110.3Q124.6 110.1 124.7 109.8L124.7 109.8L125.8 110.1Q125.7 110.6 125.4 111.0Q125.1 111.4 124.7 111.6Q124.3 111.9 123.9 112.0Q123.4 112.2 122.9 112.2ZM130.3 112.2L130.3 112.2Q129.4 112.2 128.6 111.7Q127.9 111.2 127.5 110.4Q127.1 109.6 127.1 108.5L127.1 108.5Q127.1 107.4 127.5 106.6Q127.9 105.7 128.6 105.3Q129.4 104.8 130.3 104.8L130.3 104.8Q131.3 104.8 132.0 105.3Q132.7 105.7 133.2 106.6Q133.6 107.4 133.6 108.5L133.6 108.5Q133.6 109.6 133.2 110.4Q132.7 111.2 132.0 111.7Q131.3 112.2 130.3 112.2ZM130.3 111.1L130.3 111.1Q131.0 111.1 131.5 110.8Q132.0 110.4 132.2 109.8Q132.4 109.2 132.4 108.5L132.4 108.5Q132.4 107.8 132.2 107.2Q132.0 106.6 131.5 106.2Q131.0 105.8 130.3 105.8L130.3 105.8Q129.6 105.8 129.1 106.2Q128.7 106.6 128.5 107.2Q128.2 107.8 128.2 108.5L128.2 108.5Q128.2 109.2 128.5 109.8Q128.7 110.4 129.1 110.8Q129.6 111.1 130.3 111.1ZM135.2 102.5L136.4 102.5L136.4 112L135.2 112L135.2 102.5ZM138.4 102.5L139.5 102.5L139.5 112L138.4 112L138.4 102.5ZM143.5 112.2L143.5 112.2Q142.8 112.2 142.3 111.9Q141.7 111.7 141.4 111.2Q141.1 110.7 141.1 110.0L141.1 110.0Q141.1 109.4 141.3 109.0Q141.6 108.6 142.0 108.4Q142.4 108.2 142.9 108.1Q143.4 108.0 143.9 107.9L143.9 107.9Q144.5 107.8 144.9 107.8Q145.3 107.7 145.5 107.6Q145.7 107.5 145.7 107.2L145.7 107.2L145.7 107.2Q145.7 106.8 145.5 106.5Q145.3 106.1 145.0 106.0Q144.7 105.8 144.2 105.8L144.2 105.8Q143.7 105.8 143.3 106.0Q143.0 106.1 142.7 106.4Q142.5 106.6 142.4 106.9L142.4 106.9L141.3 106.5Q141.6 105.8 142.0 105.5Q142.5 105.1 143.1 105.0Q143.6 104.8 144.2 104.8L144.2 104.8Q144.5 104.8 145.0 104.9Q145.4 105.0 145.8 105.2Q146.3 105.5 146.5 106.0Q146.8 106.5 146.8 107.3L146.8 107.3L146.8 112L145.7 112L145.7 111.0L145.6 111.0Q145.5 111.3 145.2 111.5Q145.0 111.8 144.5 112.0Q144.1 112.2 143.5 112.2ZM143.7 111.2L143.7 111.2Q144.3 111.2 144.8 110.9Q145.2 110.7 145.4 110.3Q145.7 109.9 145.7 109.4L145.7 109.4L145.7 108.5Q145.6 108.5 145.4 108.6Q145.1 108.7 144.8 108.7Q144.5 108.8 144.2 108.8Q144.0 108.8 143.8 108.9L143.8 108.9Q143.4 108.9 143.0 109.0Q142.7 109.2 142.5 109.4Q142.2 109.6 142.2 110.0L142.2 110.0Q142.2 110.4 142.4 110.7Q142.6 110.9 142.9 111.0Q143.3 111.2 143.7 111.2ZM152.1 112.2L152.1 112.2Q151.4 112.2 151.0 111.9Q150.6 111.7 150.4 111.4Q150.2 111.1 150.1 110.9L150.1 110.9L149.9 110.9L149.9 112L148.8 112L148.8 102.5L150.0 102.5L150.0 106.0L150.1 106.0Q150.2 105.8 150.4 105.6Q150.6 105.3 151.0 105.0Q151.4 104.8 152.1 104.8L152.1 104.8Q153.0 104.8 153.7 105.3Q154.4 105.7 154.7 106.5Q155.1 107.3 155.1 108.5L155.1 108.5Q155.1 109.6 154.7 110.4Q154.4 111.3 153.7 111.7Q153.0 112.2 152.1 112.2ZM151.9 111.1L151.9 111.1Q152.6 111.1 153.1 110.8Q153.5 110.4 153.7 109.8Q154.0 109.2 154.0 108.5L154.0 108.5Q154.0 107.7 153.7 107.1Q153.5 106.5 153.1 106.2Q152.6 105.8 151.9 105.8L151.9 105.8Q151.3 105.8 150.8 106.2Q150.4 106.5 150.2 107.1Q150.0 107.7 150.0 108.5L150.0 108.5Q150.0 109.2 150.2 109.8Q150.4 110.5 150.9 110.8Q151.3 111.1 151.9 111.1ZM159.7 112.2L159.7 112.2Q158.7 112.2 158.0 111.7Q157.3 111.2 156.8 110.4Q156.4 109.6 156.4 108.5L156.4 108.5Q156.4 107.4 156.8 106.6Q157.3 105.7 158.0 105.3Q158.7 104.8 159.7 104.8L159.7 104.8Q160.6 104.8 161.4 105.3Q162.1 105.7 162.5 106.6Q162.9 107.4 162.9 108.5L162.9 108.5Q162.9 109.6 162.5 110.4Q162.1 111.2 161.4 111.7Q160.6 112.2 159.7 112.2ZM159.7 111.1L159.7 111.1Q160.4 111.1 160.9 110.8Q161.3 110.4 161.5 109.8Q161.8 109.2 161.8 108.5L161.8 108.5Q161.8 107.8 161.5 107.2Q161.3 106.6 160.9 106.2Q160.4 105.8 159.7 105.8L159.7 105.8Q159.0 105.8 158.5 106.2Q158.0 106.6 157.8 107.2Q157.6 107.8 157.6 108.5L157.6 108.5Q157.6 109.2 157.8 109.8Q158.0 110.4 158.5 110.8Q159.0 111.1 159.7 111.1ZM165.7 112L164.6 112L164.6 104.9L165.7 104.9L165.7 106.0L165.8 106.0Q166.0 105.5 166.5 105.1Q167.0 104.8 167.6 104.8L167.6 104.8Q167.7 104.8 167.9 104.8Q168.1 104.8 168.2 104.8L168.2 104.8L168.2 106.0Q168.1 106.0 167.9 105.9Q167.7 105.9 167.5 105.9L167.5 105.9Q167.0 105.9 166.6 106.1Q166.2 106.3 165.9 106.7Q165.7 107.1 165.7 107.6L165.7 107.6L165.7 112ZM171.5 112.2L171.5 112.2Q170.8 112.2 170.2 111.9Q169.7 111.7 169.4 111.2Q169.0 110.7 169.0 110.0L169.0 110.0Q169.0 109.4 169.3 109.0Q169.5 108.6 169.9 108.4Q170.3 108.2 170.8 108.1Q171.3 108.0 171.8 107.9L171.8 107.9Q172.4 107.8 172.8 107.8Q173.2 107.7 173.4 107.6Q173.6 107.5 173.6 107.2L173.6 107.2L173.6 107.2Q173.6 106.8 173.5 106.5Q173.3 106.1 173.0 106.0Q172.6 105.8 172.1 105.8L172.1 105.8Q171.6 105.8 171.3 106.0Q170.9 106.1 170.7 106.4Q170.5 106.6 170.3 106.9L170.3 106.9L169.2 106.5Q169.5 105.8 170.0 105.5Q170.4 105.1 171 105.0Q171.6 104.8 172.1 104.8L172.1 104.8Q172.5 104.8 172.9 104.9Q173.4 105.0 173.8 105.2Q174.2 105.5 174.5 106.0Q174.8 106.5 174.8 107.3L174.8 107.3L174.8 112L173.6 112L173.6 111.0L173.6 111.0Q173.4 111.3 173.2 111.5Q172.9 111.8 172.5 112.0Q172.1 112.2 171.5 112.2ZM171.7 111.2L171.7 111.2Q172.3 111.2 172.7 110.9Q173.2 110.7 173.4 110.3Q173.6 109.9 173.6 109.4L173.6 109.4L173.6 108.5Q173.6 108.5 173.3 108.6Q173.1 108.7 172.8 108.7Q172.5 108.8 172.2 108.8Q171.9 108.8 171.7 108.9L171.7 108.9Q171.3 108.9 171.0 109.0Q170.6 109.2 170.4 109.4Q170.2 109.6 170.2 110.0L170.2 110.0Q170.2 110.4 170.4 110.7Q170.6 110.9 170.9 111.0Q171.2 111.2 171.7 111.2ZM178.1 104.9L179.6 104.9L179.6 105.9L178.1 105.9L178.1 110.2Q178.1 110.6 178.3 110.9Q178.5 111.1 178.9 111.1L178.9 111.1Q179.0 111.1 179.2 111.0Q179.4 111.0 179.5 111.0L179.5 111.0L179.8 112.0Q179.6 112.0 179.4 112.1Q179.1 112.1 178.9 112.1L178.9 112.1Q178.0 112.1 177.5 111.6Q177.0 111.1 177.0 110.2L177.0 110.2L177.0 105.9L175.9 105.9L175.9 104.9L177.0 104.9L177.0 103.2L178.1 103.2L178.1 104.9ZM182.2 112L181.0 112L181.0 104.9L182.2 104.9L182.2 112ZM181.6 103.7L181.6 103.7Q181.3 103.7 181.0 103.5Q180.8 103.3 180.8 103.0L180.8 103.0Q180.8 102.7 181.0 102.4Q181.3 102.2 181.6 102.2L181.6 102.2Q181.9 102.2 182.2 102.4Q182.4 102.7 182.4 103.0L182.4 103.0Q182.4 103.3 182.2 103.5Q181.9 103.7 181.6 103.7ZM187.1 112.2L187.1 112.2Q186.1 112.2 185.4 111.7Q184.6 111.2 184.2 110.4Q183.8 109.6 183.8 108.5L183.8 108.5Q183.8 107.4 184.2 106.6Q184.6 105.7 185.4 105.3Q186.1 104.8 187.1 104.8L187.1 104.8Q188.0 104.8 188.8 105.3Q189.5 105.7 189.9 106.6Q190.3 107.4 190.3 108.5L190.3 108.5Q190.3 109.6 189.9 110.4Q189.5 111.2 188.8 111.7Q188.0 112.2 187.1 112.2ZM187.1 111.1L187.1 111.1Q187.8 111.1 188.2 110.8Q188.7 110.4 188.9 109.8Q189.1 109.2 189.1 108.5L189.1 108.5Q189.1 107.8 188.9 107.2Q188.7 106.6 188.2 106.2Q187.8 105.8 187.1 105.8L187.1 105.8Q186.3 105.8 185.9 106.2Q185.4 106.6 185.2 107.2Q185.0 107.8 185.0 108.5L185.0 108.5Q185.0 109.2 185.2 109.8Q185.4 110.4 185.9 110.8Q186.3 111.1 187.1 111.1ZM193.1 107.7L193.1 107.7L193.1 112L192.0 112L192.0 104.9L193.1 104.9L193.1 106.2Q193.4 105.6 193.8 105.2L193.8 105.2Q194.4 104.8 195.2 104.8L195.2 104.8Q196.0 104.8 196.5 105.1Q197.0 105.4 197.3 106.0Q197.6 106.6 197.6 107.5L197.6 107.5L197.6 112L196.5 112L196.5 107.6Q196.5 106.8 196.1 106.3Q195.6 105.8 194.9 105.8L194.9 105.8Q194.4 105.8 194.0 106.1Q193.6 106.3 193.3 106.7Q193.1 107.1 193.1 107.7ZM202.1 112.2L202.1 112.2Q201.3 112.2 200.8 111.9Q200.2 111.7 199.8 111.3Q199.5 110.9 199.3 110.3L199.3 110.3L200.4 110.0Q200.6 110.6 201.0 110.9Q201.4 111.1 202.0 111.1L202.0 111.1Q202.8 111.1 203.2 110.8Q203.7 110.5 203.7 110.1L203.7 110.1Q203.7 109.7 203.4 109.5Q203.2 109.2 202.6 109.1L202.6 109.1L201.4 108.8Q200.5 108.6 200.0 108.1Q199.5 107.6 199.5 106.9L199.5 106.9Q199.5 106.3 199.9 105.8Q200.2 105.3 200.8 105.1Q201.4 104.8 202.2 104.8L202.2 104.8Q202.9 104.8 203.4 105.0Q203.9 105.3 204.2 105.6Q204.6 106.0 204.7 106.5L204.7 106.5L203.7 106.8Q203.5 106.4 203.2 106.1Q202.9 105.8 202.2 105.8L202.2 105.8Q201.5 105.8 201.1 106.1Q200.7 106.4 200.7 106.8L200.7 106.8Q200.7 107.2 201.0 107.4Q201.3 107.7 201.9 107.8L201.9 107.8L203.0 108.1Q203.9 108.3 204.4 108.8Q204.9 109.3 204.9 110.0L204.9 110.0Q204.9 110.6 204.5 111.1Q204.2 111.6 203.5 111.9Q202.9 112.2 202.1 112.2ZM207.4 112.1L207.4 112.1Q207.0 112.1 206.8 111.8Q206.5 111.6 206.5 111.2L206.5 111.2Q206.5 110.9 206.8 110.6Q207.0 110.4 207.4 110.4L207.4 110.4Q207.7 110.4 208.0 110.6Q208.2 110.9 208.2 111.2L208.2 111.2Q208.2 111.6 208.0 111.8Q207.7 112.1 207.4 112.1Z "/></g><mask id="satori_om-id-2"><rect x="443" y="45" width="390" height="46" fill="#fff" mask="url(#satori_om-id)"/></mask><mask id="satori_om-id-2-0"><rect x="443" y="45" width="120" height="46" fill="#fff" mask="url(#satori_om-id)"/></mask><clipPath id="satori_cp-id-2-0-0" clip-path="url(#satori_cp-id)"><path x="443" y="45" width="120" height="46" d="M466,45 h74 a23,23 0 0 1 23,23 v0 a23,23 0 0 1 -23,23 h-74 a23,23 0 0 1 -23,-23 v0 a23,23 0 0 1 23,-23"/></clipPath><mask id="satori_om-id-2-0-0"><rect x="443" y="45" width="120" height="46" fill="#fff" mask="url(#satori_om-id)"/></mask><path x="443" y="45" width="120" height="46" fill="#08080C" d="M466,45 h74 a23,23 0 0 1 23,23 v0 a23,23 0 0 1 -23,23 h-74 a23,23 0 0 1 -23,-23 v0 a23,23 0 0 1 23,-23" clip-path="url(#satori_cp-id)" mask="url(#satori_om-id)"/><clipPath id="satori_cp-id-2-0-0-0" clip-path="url(#satori_cp-id-2-0-0)"><rect x="443" y="45" width="120" height="46"/></clipPath><mask id="satori_om-id-2-0-0-0"><rect x="443" y="45" width="120" height="46" fill="#fff" mask="url(#satori_om-id-2-0-0)"/></mask><svg x="443" y="45" width="120" height="46" preserveAspectRatio="none" clip-path="url(#satori_cp-id-2-0-0-0)" mask="url(#satori_om-id-2-0-0-0)"><defs><linearGradient id="btnBorder0" x1="0" y1="0" x2="1" y2="0"><stop offset="0%" stop-color="#F97316"></stop><stop offset="36%" stop-color="#FF7A00"></stop><stop offset="52%" stop-color="#050505"></stop><stop offset="74%" stop-color="#FB923C"></stop><stop offset="100%" stop-color="#F97316"></stop><animateTransform attributeName="gradientTransform" type="rotate" from="0 0.5 0.5" to="360 0.5 0.5" dur="5.5s" repeatCount="indefinite"></animateTransform></linearGradient></defs><rect x="1" y="1" width="118" height="44" rx="22" fill="none" stroke="url(#btnBorder0)" stroke-width="1.7" stroke-dasharray="16 8"><animate attributeName="stroke-dashoffset" values="0;48" dur="4.6s" repeatCount="indefinite"></animate></rect><rect x="1" y="1" width="118" height="44" rx="22" fill="none" stroke="url(#btnBorder0)" stroke-width="3" opacity="0.18" stroke-dasharray="16 8"><animate attributeName="stroke-dashoffset" values="0;48" dur="4.6s" repeatCount="indefinite"></animate><animate attributeName="opacity" values="0.08;0.25;0.08" dur="4.6s" repeatCount="indefinite"></animate></rect><rect x="2" y="2" width="116" height="42" rx="21" fill="#08080C"></rect></svg><mask id="satori_om-id-2-0-0-0-0"><rect x="443" y="45" width="0" height="46" fill="#fff" mask="url(#satori_om-id-2-0-0)"/></mask><mask id="satori_om-id-2-0-0-0-0-0"><rect x="443" y="45" width="0" height="46" fill="#fff" mask="url(#satori_om-id-2-0-0)"/></mask><mask id="satori_om-id-2-0-0-0-0-0-0"><rect x="443" y="45" width="0" height="46" fill="#fff" mask="url(#satori_om-id-2-0-0)"/></mask><mask id="satori_om-id-2-0-0-0-0-0-1"><rect x="443" y="45" width="0" height="46" fill="#fff" mask="url(#satori_om-id-2-0-0)"/></mask><mask id="satori_om-id-2-0-0-0-0-0-2"><rect x="443" y="45" width="0" height="46" fill="#fff" mask="url(#satori_om-id-2-0-0)"/></mask><mask id="satori_om-id-2-0-0-0-0-0-3"><rect x="443" y="45" width="0" height="46" fill="#fff" mask="url(#satori_om-id-2-0-0)"/></mask><mask id="satori_om-id-2-0-0-0-0-0-4"><rect x="443" y="45" width="0" height="46" fill="#fff" mask="url(#satori_om-id-2-0-0)"/></mask><mask id="satori_om-id-2-0-0-0-0-0-5"><rect x="443" y="45" width="0" height="46" fill="#fff" mask="url(#satori_om-id-2-0-0)"/></mask><mask id="satori_om-id-2-0-0-0-1"><rect x="443" y="45" width="0" height="46" fill="#fff" mask="url(#satori_om-id-2-0-0)"/></mask><mask id="satori_om-id-2-0-0-0-1-0"><rect x="443" y="45" width="0" height="46" fill="#fff" mask="url(#satori_om-id-2-0-0)"/></mask><mask id="satori_om-id-2-0-0-0-2"><rect x="443" y="45" width="0" height="46" fill="#fff" mask="url(#satori_om-id-2-0-0)"/></mask><mask id="satori_om-id-2-0-0-0-2-0"><rect x="443" y="45" width="0" height="46" fill="#fff" mask="url(#satori_om-id-2-0-0)"/></mask><mask id="satori_om-id-2-0-0-0-2-1"><rect x="443" y="45" width="0" height="46" fill="#fff" mask="url(#satori_om-id-2-0-0)"/></mask><mask id="satori_om-id-2-0-0-0-3"><rect x="443" y="45" width="0" height="46" fill="#fff" mask="url(#satori_om-id-2-0-0)"/></mask><mask id="satori_om-id-2-0-0-1"><rect x="474" y="60" width="59" height="17" fill="#fff" mask="url(#satori_om-id-2-0-0)"/></mask><g mask="url(#satori_om-id-2-0-0)" clip-path="url(#satori_cp-id-2-0-0)"><path fill="#F97316" d="M481.4 74L474.9 74L474.9 63.8L477.0 63.8L477.0 72.3L481.4 72.3L481.4 74ZM484.8 74L482.8 74L482.8 66.4L484.8 66.4L484.8 74ZM483.8 65.4L483.8 65.4Q483.4 65.4 483.0 65.1Q482.7 64.7 482.7 64.3L482.7 64.3Q482.7 63.9 483.0 63.6Q483.4 63.3 483.8 63.3L483.8 63.3Q484.3 63.3 484.6 63.6Q484.9 63.9 484.9 64.3L484.9 64.3Q484.9 64.7 484.6 65.1Q484.3 65.4 483.8 65.4ZM488.6 69.6L488.6 69.6L488.6 74L486.6 74L486.6 66.4L488.5 66.4L488.5 67.9Q488.8 67.2 489.3 66.8L489.3 66.8Q490.0 66.3 490.9 66.3L490.9 66.3Q491.7 66.3 492.3 66.6Q492.9 67.0 493.2 67.6Q493.6 68.2 493.6 69.1L493.6 69.1L493.6 74L491.5 74L491.5 69.5Q491.5 68.8 491.1 68.4Q490.8 68.0 490.1 68.0L490.1 68.0Q489.7 68.0 489.4 68.2Q489.0 68.4 488.8 68.7Q488.6 69.1 488.6 69.6ZM497.4 74L495.3 74L495.3 63.8L497.4 63.8L497.4 69.3L497.5 69.3L500.0 66.4L502.3 66.4L499.5 69.7L502.5 74L500.1 74L497.9 70.9L497.4 71.5L497.4 74ZM506.9 74.2L506.9 74.2Q505.7 74.2 504.9 73.7Q504.0 73.2 503.6 72.3Q503.1 71.4 503.1 70.2L503.1 70.2Q503.1 69.0 503.6 68.1Q504.0 67.3 504.8 66.8Q505.7 66.3 506.8 66.3L506.8 66.3Q507.5 66.3 508.2 66.5Q508.8 66.7 509.3 67.2Q509.8 67.7 510.1 68.4Q510.4 69.2 510.4 70.1L510.4 70.1L510.4 70.7L505.1 70.7Q505.2 71.3 505.4 71.7L505.4 71.7Q505.6 72.2 506.0 72.4Q506.4 72.6 506.9 72.6L506.9 72.6Q507.3 72.6 507.6 72.5Q507.9 72.4 508.1 72.2Q508.3 72.0 508.4 71.7L508.4 71.7L510.2 72.1Q510.1 72.7 509.6 73.2Q509.1 73.6 508.5 73.9Q507.8 74.2 506.9 74.2ZM505.1 69.4L505.1 69.4L508.4 69.4Q508.3 69.0 508.2 68.7L508.2 68.7Q508.0 68.3 507.7 68.0Q507.3 67.8 506.8 67.8L506.8 67.8Q506.3 67.8 505.9 68.1Q505.5 68.3 505.3 68.7L505.3 68.7Q505.2 69.0 505.1 69.4ZM514.6 74.1L514.6 74.1Q513.7 74.1 513.0 73.7Q512.3 73.2 511.9 72.3Q511.4 71.5 511.4 70.2L511.4 70.2Q511.4 68.9 511.9 68.0Q512.3 67.1 513.0 66.7Q513.7 66.3 514.5 66.3L514.5 66.3Q515.2 66.3 515.6 66.5Q516.1 66.7 516.3 67.0Q516.6 67.3 516.7 67.6L516.7 67.6L516.8 67.6L516.8 63.8L518.8 63.8L518.8 74L516.8 74L516.8 72.8L516.7 72.8Q516.6 73.1 516.3 73.4Q516.0 73.7 515.6 73.9Q515.2 74.1 514.6 74.1ZM515.2 72.5L515.2 72.5Q515.7 72.5 516.1 72.2Q516.4 71.9 516.6 71.4Q516.8 70.9 516.8 70.2L516.8 70.2Q516.8 69.5 516.6 69.0Q516.5 68.5 516.1 68.2Q515.7 67.9 515.2 67.9L515.2 67.9Q514.6 67.9 514.3 68.2Q513.9 68.5 513.7 69.0Q513.5 69.5 513.5 70.2L513.5 70.2Q513.5 70.9 513.7 71.4Q513.9 71.9 514.3 72.2Q514.7 72.5 515.2 72.5ZM520.6 63.8L522.7 63.8L522.7 74L520.6 74L520.6 63.8ZM526.6 69.6L526.6 69.6L526.6 74L524.5 74L524.5 66.4L526.5 66.4L526.5 67.9Q526.8 67.2 527.3 66.8L527.3 66.8Q527.9 66.3 528.9 66.3L528.9 66.3Q529.7 66.3 530.2 66.6Q530.8 67.0 531.2 67.6Q531.5 68.2 531.5 69.1L531.5 69.1L531.5 74L529.4 74L529.4 69.5Q529.4 68.8 529.1 68.4Q528.7 68.0 528.1 68.0L528.1 68.0Q527.6 68.0 527.3 68.2Q526.9 68.4 526.8 68.7Q526.6 69.1 526.6 69.6Z "/></g><mask id="satori_om-id-2-1"><rect x="578" y="45" width="120" height="46" fill="#fff" mask="url(#satori_om-id)"/></mask><clipPath id="satori_cp-id-2-1-0" clip-path="url(#satori_cp-id)"><path x="578" y="45" width="120" height="46" d="M601,45 h74 a23,23 0 0 1 23,23 v0 a23,23 0 0 1 -23,23 h-74 a23,23 0 0 1 -23,-23 v0 a23,23 0 0 1 23,-23"/></clipPath><mask id="satori_om-id-2-1-0"><rect x="578" y="45" width="120" height="46" fill="#fff" mask="url(#satori_om-id)"/></mask><path x="578" y="45" width="120" height="46" fill="#08080C" d="M601,45 h74 a23,23 0 0 1 23,23 v0 a23,23 0 0 1 -23,23 h-74 a23,23 0 0 1 -23,-23 v0 a23,23 0 0 1 23,-23" clip-path="url(#satori_cp-id)" mask="url(#satori_om-id)"/><clipPath id="satori_cp-id-2-1-0-0" clip-path="url(#satori_cp-id-2-1-0)"><rect x="578" y="45" width="120" height="46"/></clipPath><mask id="satori_om-id-2-1-0-0"><rect x="578" y="45" width="120" height="46" fill="#fff" mask="url(#satori_om-id-2-1-0)"/></mask><svg x="578" y="45" width="120" height="46" preserveAspectRatio="none" clip-path="url(#satori_cp-id-2-1-0-0)" mask="url(#satori_om-id-2-1-0-0)"><defs><linearGradient id="btnBorder1" x1="0" y1="0" x2="1" y2="0"><stop offset="0%" stop-color="#F97316"></stop><stop offset="36%" stop-color="#FF7A00"></stop><stop offset="52%" stop-color="#050505"></stop><stop offset="74%" stop-color="#FB923C"></stop><stop offset="100%" stop-color="#F97316"></stop><animateTransform attributeName="gradientTransform" type="rotate" from="0 0.5 0.5" to="360 0.5 0.5" dur="5.5s" repeatCount="indefinite"></animateTransform></linearGradient></defs><rect x="1" y="1" width="118" height="44" rx="22" fill="none" stroke="url(#btnBorder1)" stroke-width="1.7" stroke-dasharray="16 8"><animate attributeName="stroke-dashoffset" values="0;48" dur="4.6s" repeatCount="indefinite"></animate></rect><rect x="1" y="1" width="118" height="44" rx="22" fill="none" stroke="url(#btnBorder1)" stroke-width="3" opacity="0.18" stroke-dasharray="16 8"><animate attributeName="stroke-dashoffset" values="0;48" dur="4.6s" repeatCount="indefinite"></animate><animate attributeName="opacity" values="0.08;0.25;0.08" dur="4.6s" repeatCount="indefinite"></animate></rect><rect x="2" y="2" width="116" height="42" rx="21" fill="#08080C"></rect></svg><mask id="satori_om-id-2-1-0-0-0"><rect x="578" y="45" width="0" height="46" fill="#fff" mask="url(#satori_om-id-2-1-0)"/></mask><mask id="satori_om-id-2-1-0-0-0-0"><rect x="578" y="45" width="0" height="46" fill="#fff" mask="url(#satori_om-id-2-1-0)"/></mask><mask id="satori_om-id-2-1-0-0-0-0-0"><rect x="578" y="45" width="0" height="46" fill="#fff" mask="url(#satori_om-id-2-1-0)"/></mask><mask id="satori_om-id-2-1-0-0-0-0-1"><rect x="578" y="45" width="0" height="46" fill="#fff" mask="url(#satori_om-id-2-1-0)"/></mask><mask id="satori_om-id-2-1-0-0-0-0-2"><rect x="578" y="45" width="0" height="46" fill="#fff" mask="url(#satori_om-id-2-1-0)"/></mask><mask id="satori_om-id-2-1-0-0-0-0-3"><rect x="578" y="45" width="0" height="46" fill="#fff" mask="url(#satori_om-id-2-1-0)"/></mask><mask id="satori_om-id-2-1-0-0-0-0-4"><rect x="578" y="45" width="0" height="46" fill="#fff" mask="url(#satori_om-id-2-1-0)"/></mask><mask id="satori_om-id-2-1-0-0-0-0-5"><rect x="578" y="45" width="0" height="46" fill="#fff" mask="url(#satori_om-id-2-1-0)"/></mask><mask id="satori_om-id-2-1-0-0-1"><rect x="578" y="45" width="0" height="46" fill="#fff" mask="url(#satori_om-id-2-1-0)"/></mask><mask id="satori_om-id-2-1-0-0-1-0"><rect x="578" y="45" width="0" height="46" fill="#fff" mask="url(#satori_om-id-2-1-0)"/></mask><mask id="satori_om-id-2-1-0-0-2"><rect x="578" y="45" width="0" height="46" fill="#fff" mask="url(#satori_om-id-2-1-0)"/></mask><mask id="satori_om-id-2-1-0-0-2-0"><rect x="578" y="45" width="0" height="46" fill="#fff" mask="url(#satori_om-id-2-1-0)"/></mask><mask id="satori_om-id-2-1-0-0-2-1"><rect x="578" y="45" width="0" height="46" fill="#fff" mask="url(#satori_om-id-2-1-0)"/></mask><mask id="satori_om-id-2-1-0-0-3"><rect x="578" y="45" width="0" height="46" fill="#fff" mask="url(#satori_om-id-2-1-0)"/></mask><mask id="satori_om-id-2-1-0-1"><rect x="620" y="60" width="37" height="17" fill="#fff" mask="url(#satori_om-id-2-1-0)"/></mask><g mask="url(#satori_om-id-2-1-0)" clip-path="url(#satori_cp-id-2-1-0)"><path fill="#F97316" d="M627.8 74L620.9 74L620.9 63.8L627.7 63.8L627.7 65.5L623.0 65.5L623.0 68.0L627.4 68.0L627.4 69.7L623.0 69.7L623.0 72.3L627.8 72.3L627.8 74ZM631.4 74L629.4 74L629.4 66.4L631.3 66.4L631.4 67.8Q631.5 67.4 631.8 67.1L631.8 67.1Q632.1 66.7 632.6 66.5Q633.0 66.2 633.5 66.2L633.5 66.2Q634.4 66.2 634.9 66.8L634.9 66.8Q635.3 67.2 635.5 68.0L635.5 68.0Q635.7 67.5 635.9 67.2L635.9 67.2Q636.3 66.7 636.9 66.5Q637.4 66.2 638.0 66.2L638.0 66.2Q638.7 66.2 639.2 66.5Q639.8 66.9 640.1 67.4Q640.4 68.0 640.4 68.8L640.4 68.8L640.4 74L638.4 74L638.4 69.2Q638.4 68.6 638.0 68.3Q637.7 68.0 637.1 68.0L637.1 68.0Q636.8 68.0 636.5 68.1Q636.2 68.3 636.0 68.6Q635.9 68.9 635.9 69.3L635.9 69.3L635.9 74L633.9 74L633.9 69.2Q633.9 68.6 633.6 68.3Q633.2 68.0 632.7 68.0L632.7 68.0Q632.3 68.0 632.1 68.1Q631.8 68.3 631.6 68.6Q631.4 68.9 631.4 69.4L631.4 69.4L631.4 74ZM644.3 74.2L644.3 74.2Q643.6 74.2 643.0 73.9Q642.4 73.6 642.1 73.1Q641.7 72.6 641.7 71.9L641.7 71.9Q641.7 71.2 642.0 70.8Q642.2 70.4 642.6 70.1Q643.0 69.8 643.5 69.7Q644.1 69.6 644.6 69.5L644.6 69.5Q645.3 69.4 645.7 69.4Q646.1 69.3 646.3 69.2Q646.5 69.1 646.5 68.8L646.5 68.8L646.5 68.8Q646.5 68.5 646.3 68.2Q646.2 68.0 645.9 67.9Q645.7 67.8 645.3 67.8L645.3 67.8Q644.9 67.8 644.6 67.9Q644.3 68.0 644.1 68.2Q643.9 68.4 643.8 68.7L643.8 68.7L642.0 68.4Q642.2 67.7 642.6 67.2Q643.1 66.8 643.8 66.5Q644.4 66.3 645.3 66.3L645.3 66.3Q645.9 66.3 646.5 66.4Q647.1 66.6 647.5 66.9Q648.0 67.2 648.3 67.7Q648.5 68.2 648.5 68.9L648.5 68.9L648.5 74L646.6 74L646.6 72.9L646.5 72.9Q646.3 73.3 646.0 73.6Q645.7 73.8 645.3 74.0Q644.9 74.2 644.3 74.2ZM644.9 72.7L644.9 72.7Q645.4 72.7 645.7 72.5Q646.1 72.3 646.3 72.0Q646.5 71.7 646.5 71.3L646.5 71.3L646.5 70.4Q646.4 70.5 646.2 70.6Q646.0 70.6 645.8 70.7Q645.6 70.7 645.4 70.7Q645.1 70.8 645.0 70.8L645.0 70.8Q644.6 70.8 644.3 71.0Q644.0 71.1 643.9 71.3Q643.7 71.5 643.7 71.8L643.7 71.8Q643.7 72.1 643.9 72.3Q644.0 72.5 644.3 72.6Q644.5 72.7 644.9 72.7ZM652.3 74L650.3 74L650.3 66.4L652.3 66.4L652.3 74ZM651.3 65.4L651.3 65.4Q650.8 65.4 650.5 65.1Q650.2 64.7 650.2 64.3L650.2 64.3Q650.2 63.9 650.5 63.6Q650.8 63.3 651.3 63.3L651.3 63.3Q651.8 63.3 652.1 63.6Q652.4 63.9 652.4 64.3L652.4 64.3Q652.4 64.7 652.1 65.1Q651.8 65.4 651.3 65.4ZM654.1 63.8L656.1 63.8L656.1 74L654.1 74L654.1 63.8Z "/></g><mask id="satori_om-id-2-2"><rect x="713" y="45" width="120" height="46" fill="#fff" mask="url(#satori_om-id)"/></mask><clipPath id="satori_cp-id-2-2-0" clip-path="url(#satori_cp-id)"><path x="713" y="45" width="120" height="46" d="M736,45 h74 a23,23 0 0 1 23,23 v0 a23,23 0 0 1 -23,23 h-74 a23,23 0 0 1 -23,-23 v0 a23,23 0 0 1 23,-23"/></clipPath><mask id="satori_om-id-2-2-0"><rect x="713" y="45" width="120" height="46" fill="#fff" mask="url(#satori_om-id)"/></mask><path x="713" y="45" width="120" height="46" fill="#08080C" d="M736,45 h74 a23,23 0 0 1 23,23 v0 a23,23 0 0 1 -23,23 h-74 a23,23 0 0 1 -23,-23 v0 a23,23 0 0 1 23,-23" clip-path="url(#satori_cp-id)" mask="url(#satori_om-id)"/><clipPath id="satori_cp-id-2-2-0-0" clip-path="url(#satori_cp-id-2-2-0)"><rect x="713" y="45" width="120" height="46"/></clipPath><mask id="satori_om-id-2-2-0-0"><rect x="713" y="45" width="120" height="46" fill="#fff" mask="url(#satori_om-id-2-2-0)"/></mask><svg x="713" y="45" width="120" height="46" preserveAspectRatio="none" clip-path="url(#satori_cp-id-2-2-0-0)" mask="url(#satori_om-id-2-2-0-0)"><defs><linearGradient id="btnBorder2" x1="0" y1="0" x2="1" y2="0"><stop offset="0%" stop-color="#F97316"></stop><stop offset="36%" stop-color="#FF7A00"></stop><stop offset="52%" stop-color="#050505"></stop><stop offset="74%" stop-color="#FB923C"></stop><stop offset="100%" stop-color="#F97316"></stop><animateTransform attributeName="gradientTransform" type="rotate" from="0 0.5 0.5" to="360 0.5 0.5" dur="5.5s" repeatCount="indefinite"></animateTransform></linearGradient></defs><rect x="1" y="1" width="118" height="44" rx="22" fill="none" stroke="url(#btnBorder2)" stroke-width="1.7" stroke-dasharray="16 8"><animate attributeName="stroke-dashoffset" values="0;48" dur="4.6s" repeatCount="indefinite"></animate></rect><rect x="1" y="1" width="118" height="44" rx="22" fill="none" stroke="url(#btnBorder2)" stroke-width="3" opacity="0.18" stroke-dasharray="16 8"><animate attributeName="stroke-dashoffset" values="0;48" dur="4.6s" repeatCount="indefinite"></animate><animate attributeName="opacity" values="0.08;0.25;0.08" dur="4.6s" repeatCount="indefinite"></animate></rect><rect x="2" y="2" width="116" height="42" rx="21" fill="#08080C"></rect></svg><mask id="satori_om-id-2-2-0-0-0"><rect x="713" y="45" width="0" height="46" fill="#fff" mask="url(#satori_om-id-2-2-0)"/></mask><mask id="satori_om-id-2-2-0-0-0-0"><rect x="713" y="45" width="0" height="46" fill="#fff" mask="url(#satori_om-id-2-2-0)"/></mask><mask id="satori_om-id-2-2-0-0-0-0-0"><rect x="713" y="45" width="0" height="46" fill="#fff" mask="url(#satori_om-id-2-2-0)"/></mask><mask id="satori_om-id-2-2-0-0-0-0-1"><rect x="713" y="45" width="0" height="46" fill="#fff" mask="url(#satori_om-id-2-2-0)"/></mask><mask id="satori_om-id-2-2-0-0-0-0-2"><rect x="713" y="45" width="0" height="46" fill="#fff" mask="url(#satori_om-id-2-2-0)"/></mask><mask id="satori_om-id-2-2-0-0-0-0-3"><rect x="713" y="45" width="0" height="46" fill="#fff" mask="url(#satori_om-id-2-2-0)"/></mask><mask id="satori_om-id-2-2-0-0-0-0-4"><rect x="713" y="45" width="0" height="46" fill="#fff" mask="url(#satori_om-id-2-2-0)"/></mask><mask id="satori_om-id-2-2-0-0-0-0-5"><rect x="713" y="45" width="0" height="46" fill="#fff" mask="url(#satori_om-id-2-2-0)"/></mask><mask id="satori_om-id-2-2-0-0-1"><rect x="713" y="45" width="0" height="46" fill="#fff" mask="url(#satori_om-id-2-2-0)"/></mask><mask id="satori_om-id-2-2-0-0-1-0"><rect x="713" y="45" width="0" height="46" fill="#fff" mask="url(#satori_om-id-2-2-0)"/></mask><mask id="satori_om-id-2-2-0-0-2"><rect x="713" y="45" width="0" height="46" fill="#fff" mask="url(#satori_om-id-2-2-0)"/></mask><mask id="satori_om-id-2-2-0-0-2-0"><rect x="713" y="45" width="0" height="46" fill="#fff" mask="url(#satori_om-id-2-2-0)"/></mask><mask id="satori_om-id-2-2-0-0-2-1"><rect x="713" y="45" width="0" height="46" fill="#fff" mask="url(#satori_om-id-2-2-0)"/></mask><mask id="satori_om-id-2-2-0-0-3"><rect x="713" y="45" width="0" height="46" fill="#fff" mask="url(#satori_om-id-2-2-0)"/></mask><mask id="satori_om-id-2-2-0-1"><rect x="744" y="60" width="59" height="17" fill="#fff" mask="url(#satori_om-id-2-2-0)"/></mask><g mask="url(#satori_om-id-2-2-0)" clip-path="url(#satori_cp-id-2-2-0)"><path fill="#F97316" d="M747.0 74L744.9 74L744.9 63.8L748.9 63.8Q750.1 63.8 750.9 64.3Q751.7 64.7 752.1 65.5Q752.5 66.2 752.5 67.3L752.5 67.3Q752.5 68.3 752.1 69.0Q751.7 69.8 750.8 70.2Q750.0 70.7 748.8 70.7L748.8 70.7L747.0 70.7L747.0 74ZM747.0 65.5L747.0 69.0L748.5 69.0Q749.2 69.0 749.6 68.8Q750.0 68.5 750.2 68.2Q750.4 67.8 750.4 67.3Q750.4 66.7 750.2 66.4Q750.0 66.0 749.6 65.8Q749.1 65.5 748.5 65.5L748.5 65.5L747.0 65.5ZM757.4 74.2L757.4 74.2Q756.2 74.2 755.4 73.7Q754.5 73.2 754.1 72.3Q753.6 71.4 753.6 70.2L753.6 70.2Q753.6 69.0 754.1 68.1Q754.5 67.3 755.4 66.8Q756.2 66.3 757.4 66.3L757.4 66.3Q758.5 66.3 759.4 66.8Q760.2 67.3 760.6 68.1Q761.1 69.0 761.1 70.2L761.1 70.2Q761.1 71.4 760.6 72.3Q760.2 73.2 759.4 73.7Q758.5 74.2 757.4 74.2ZM757.4 72.5L757.4 72.5Q757.9 72.5 758.3 72.2Q758.6 71.9 758.8 71.4Q759.0 70.9 759.0 70.2L759.0 70.2Q759.0 69.5 758.8 69.0Q758.6 68.5 758.3 68.2Q757.9 67.9 757.4 67.9L757.4 67.9Q756.8 67.9 756.5 68.2Q756.1 68.5 755.9 69.0Q755.7 69.5 755.7 70.2L755.7 70.2Q755.7 70.9 755.9 71.4Q756.1 71.9 756.5 72.2Q756.8 72.5 757.4 72.5ZM764.6 74L762.5 74L762.5 66.4L764.5 66.4L764.5 67.7L764.6 67.7Q764.8 67.0 765.3 66.6Q765.8 66.3 766.4 66.3L766.4 66.3Q766.6 66.3 766.8 66.3Q767.0 66.3 767.1 66.3L767.1 66.3L767.1 68.2Q767.0 68.1 766.7 68.1Q766.4 68.1 766.2 68.1L766.2 68.1Q765.8 68.1 765.4 68.3Q765 68.5 764.8 68.8Q764.6 69.2 764.6 69.7L764.6 69.7L764.6 74ZM770.6 66.4L772.0 66.4L772.0 67.9L770.6 67.9L770.6 71.8Q770.6 72.1 770.8 72.3Q770.9 72.5 771.3 72.5L771.3 72.5Q771.4 72.5 771.6 72.4Q771.8 72.4 771.9 72.4L771.9 72.4L772.2 73.9Q771.9 74.0 771.6 74.1Q771.2 74.1 770.9 74.1L770.9 74.1Q769.8 74.1 769.2 73.5Q768.5 73.0 768.5 71.9L768.5 71.9L768.5 67.9L767.5 67.9L767.5 66.4L768.5 66.4L768.5 64.5L770.6 64.5L770.6 66.4ZM776.0 66.4L777.6 66.4L777.6 67.9L776.0 67.9L776.0 74L774.0 74L774.0 67.9L772.6 67.9L772.6 66.4L774.0 66.4L774.0 65.8Q774.0 65.0 774.3 64.4Q774.6 63.9 775.2 63.6Q775.7 63.3 776.5 63.3L776.5 63.3Q776.9 63.3 777.3 63.4Q777.7 63.5 777.9 63.5L777.9 63.5L777.6 65.1Q777.4 65.1 777.2 65.0Q777.1 65.0 776.9 65.0L776.9 65.0Q776.4 65.0 776.2 65.2Q776.0 65.4 776.0 65.8L776.0 65.8L776.0 66.4ZM782.3 74.2L782.3 74.2Q781.2 74.2 780.4 73.7Q779.5 73.2 779.1 72.3Q778.6 71.4 778.6 70.2L778.6 70.2Q778.6 69.0 779.1 68.1Q779.5 67.3 780.4 66.8Q781.2 66.3 782.3 66.3L782.3 66.3Q783.5 66.3 784.3 66.8Q785.2 67.3 785.6 68.1Q786.1 69.0 786.1 70.2L786.1 70.2Q786.1 71.4 785.6 72.3Q785.2 73.2 784.3 73.7Q783.5 74.2 782.3 74.2ZM782.3 72.5L782.3 72.5Q782.9 72.5 783.3 72.2Q783.6 71.9 783.8 71.4Q784.0 70.9 784.0 70.2L784.0 70.2Q784.0 69.5 783.8 69.0Q783.6 68.5 783.3 68.2Q782.9 67.9 782.3 67.9L782.3 67.9Q781.8 67.9 781.4 68.2Q781.1 68.5 780.9 69.0Q780.7 69.5 780.7 70.2L780.7 70.2Q780.7 70.9 780.9 71.4Q781.1 71.9 781.4 72.2Q781.8 72.5 782.3 72.5ZM787.5 63.8L789.6 63.8L789.6 74L787.5 74L787.5 63.8ZM793.4 74L791.3 74L791.3 66.4L793.4 66.4L793.4 74ZM792.3 65.4L792.3 65.4Q791.9 65.4 791.5 65.1Q791.2 64.7 791.2 64.3L791.2 64.3Q791.2 63.9 791.5 63.6Q791.9 63.3 792.3 63.3L792.3 63.3Q792.8 63.3 793.1 63.6Q793.5 63.9 793.5 64.3L793.5 64.3Q793.5 64.7 793.1 65.1Q792.8 65.4 792.3 65.4ZM798.5 74.2L798.5 74.2Q797.4 74.2 796.5 73.7Q795.7 73.2 795.2 72.3Q794.8 71.4 794.8 70.2L794.8 70.2Q794.8 69.0 795.2 68.1Q795.7 67.3 796.5 66.8Q797.4 66.3 798.5 66.3L798.5 66.3Q799.7 66.3 800.5 66.8Q801.4 67.3 801.8 68.1Q802.3 69.0 802.3 70.2L802.3 70.2Q802.3 71.4 801.8 72.3Q801.4 73.2 800.5 73.7Q799.7 74.2 798.5 74.2ZM798.5 72.5L798.5 72.5Q799.1 72.5 799.4 72.2Q799.8 71.9 800.0 71.4Q800.2 70.9 800.2 70.2L800.2 70.2Q800.2 69.5 800.0 69.0Q799.8 68.5 799.4 68.2Q799.1 67.9 798.5 67.9L798.5 67.9Q798.0 67.9 797.6 68.2Q797.2 68.5 797.1 69.0Q796.9 69.5 796.9 70.2L796.9 70.2Q796.9 70.9 797.1 71.4Q797.2 71.9 797.6 72.2Q798.0 72.5 798.5 72.5Z "/></g></svg>